<?xml version="1.0" encoding="UTF-8"?>
<svg width="14px" height="14px" viewBox="0 0 14 14" version="1.1" xmlns="http://www.w3.org/2000/svg" xmlns:xlink="http://www.w3.org/1999/xlink">
    <!-- Generator: Sketch 61.2 (89653) - https://sketch.com -->
    <title>Fill 1备份 14</title>
    <desc>Created with Sketch.</desc>
    <g id="流程设计器" stroke="none" stroke-width="1" fill="none" fill-rule="evenodd">
        <g id="流程设计器补充内容" transform="translate(-821.000000, -303.000000)" fill="#1D2C72">
            <path d="M821.65625,313.0625 C822.018719,313.0625 822.3125,313.356281 822.3125,313.71875 L822.3125,315.6875 L824.28125,315.6875 C824.643609,315.6875 824.9375,315.981281 824.9375,316.34375 C824.9375,316.706109 824.643609,317 824.28125,317 L821.65625,317 C821.293891,317 821,316.706109 821,316.34375 L821,313.71875 L821,313.71875 C821,313.356281 821.293891,313.0625 821.65625,313.0625 L821.65625,313.0625 Z M824.28125,313.71875 L831.71875,313.71875 L831.71875,306.28125 L824.28125,306.28125 L824.28125,313.71875 Z M822.96875,315.03125 L833.03125,315.03125 L833.03125,304.96875 L822.96875,304.96875 L822.96875,315.03125 Z M824.28125,304.3125 L824.28125,304.3125 L822.3125,304.3125 L822.3125,306.28125 C822.3125,306.643609 822.018719,306.9375 821.65625,306.9375 C821.293891,306.9375 821,306.643609 821,306.28125 L821,306.281141 L821,303.65625 C821,303.293781 821.293891,303 821.65625,303 L824.28125,303 L824.28125,303 C824.643609,303 824.9375,303.293781 824.9375,303.65625 C824.9375,304.018609 824.643609,304.3125 824.28125,304.3125 L824.28125,304.3125 Z M834.34375,306.9375 C833.981391,306.9375 833.6875,306.643609 833.6875,306.28125 L833.6875,306.281141 L833.6875,304.3125 L831.71875,304.3125 C831.356391,304.3125 831.0625,304.018609 831.0625,303.65625 C831.0625,303.293781 831.356391,303 831.71875,303 L831.71875,303 L834.34375,303 C834.706219,303 835,303.293781 835,303.65625 L835,306.28125 C835,306.643609 834.706219,306.9375 834.34375,306.9375 L834.34375,306.9375 Z M834.34375,317 L831.71875,317 C831.356391,317 831.0625,316.706109 831.0625,316.34375 C831.0625,315.981281 831.356391,315.6875 831.71875,315.6875 L833.6875,315.6875 L833.6875,313.71875 L833.6875,313.71875 C833.6875,313.356281 833.981391,313.0625 834.34375,313.0625 C834.706219,313.0625 835,313.356281 835,313.71875 L835,316.34375 C835,316.706109 834.706219,317 834.34375,317 L834.34375,317 Z" id="Fill-1备份-14"></path>
        </g>
    </g>
</svg>