<?xml version="1.0" encoding="UTF-8"?>
<svg width="14px" height="14px" viewBox="0 0 14 14" version="1.1" xmlns="http://www.w3.org/2000/svg" xmlns:xlink="http://www.w3.org/1999/xlink">
    <!-- Generator: Sketch 61.2 (89653) - https://sketch.com -->
    <title>Fill 1备份 17</title>
    <desc>Created with Sketch.</desc>
    <g id="流程设计器" stroke="none" stroke-width="1" fill="none" fill-rule="evenodd">
        <g id="流程设计器补充内容" transform="translate(-865.000000, -303.000000)" fill="#1D2C72">
            <path d="M873.75,313.71875 L873.75,313.71875 L875.71875,313.71875 L875.71875,311.75 C875.71875,311.387531 876.012531,311.09375 876.375,311.09375 C876.737359,311.09375 877.03125,311.387531 877.03125,311.75 L877.03125,311.75 L877.03125,314.15625 L877.03125,315.03125 L876.15625,315.03125 L873.75,315.03125 L873.75,315.03125 C873.387641,315.03125 873.09375,314.737359 873.09375,314.375 C873.09375,314.012641 873.387641,313.71875 873.75,313.71875 L873.75,313.71875 Z M873.75,304.96875 L873.75,304.96875 L876.15625,304.96875 L877.03125,304.96875 L877.03125,305.84375 L877.03125,308.25 L877.03125,308.25 C877.03125,308.612469 876.737359,308.90625 876.375,308.90625 C876.012531,308.90625 875.71875,308.612469 875.71875,308.25 L875.71875,306.28125 L873.75,306.28125 L873.75,306.28125 C873.387641,306.28125 873.09375,305.987469 873.09375,305.625 C873.09375,305.262641 873.387641,304.96875 873.75,304.96875 L873.75,304.96875 Z M866.96875,311.75 L866.96875,311.75 C866.96875,311.387531 867.262641,311.09375 867.625,311.09375 C867.987469,311.09375 868.28125,311.387531 868.28125,311.75 L868.28125,311.75 L868.28125,313.71875 L870.25,313.71875 C870.612469,313.71875 870.90625,314.012641 870.90625,314.375 C870.90625,314.737359 870.612469,315.03125 870.25,315.03125 L870.25,315.03125 L867.84375,315.03125 L866.96875,315.03125 L866.96875,314.15625 L866.96875,311.75 Z M867.84375,304.96875 L870.25,304.96875 L870.25,304.96875 C870.612469,304.96875 870.90625,305.262641 870.90625,305.625 C870.90625,305.987469 870.612469,306.28125 870.25,306.28125 L870.25,306.28125 L868.28125,306.28125 L868.28125,308.25 L868.28125,308.25 C868.28125,308.612469 867.987469,308.90625 867.625,308.90625 C867.262641,308.90625 866.96875,308.612469 866.96875,308.25 L866.96875,308.25 L866.96875,305.84375 L866.96875,304.96875 L867.84375,304.96875 Z M866.3125,315.6875 L877.6875,315.6875 L877.6875,304.3125 L866.3125,304.3125 L866.3125,315.6875 Z M878.34375,317 L865.65625,317 C865.293891,317 865,316.706219 865,316.34375 L865,303.65625 C865,303.293891 865.293891,303 865.65625,303 L878.34375,303 C878.706219,303 879,303.293891 879,303.65625 L879,316.34375 C879,316.706219 878.706219,317 878.34375,317 L878.34375,317 Z" id="Fill-1备份-17"></path>
        </g>
    </g>
</svg>