<?xml version="1.0" encoding="UTF-8"?>
<svg width="14px" height="14px" viewBox="0 0 11 12" version="1.1" xmlns="http://www.w3.org/2000/svg" xmlns:xlink="http://www.w3.org/1999/xlink">
    <!-- Generator: Sketch 61.2 (89653) - https://sketch.com -->
    <title>编组</title>
    <desc>Created with Sketch.</desc>
    <defs>
        <polygon id="path-1" points="0 0 11 0 11 12 0 12"></polygon>
    </defs>
    <g id="流程设计器" stroke="none" stroke-width="1" fill="none" fill-rule="evenodd">
        <g transform="translate(-1857.000000, -14.000000)" id="top-面板设计">
            <g>
                <g id="编组" transform="translate(1857.000000, 14.000000)">
                    <mask id="mask-2" fill="white">
                        <use xlink:href="#path-1"></use>
                    </mask>
                    <g id="Clip-2"></g>
                    <path d="M4.125,1.38461538 L1.375,1.38461538 L1.375,10.6153846 L4.125,10.6153846 C4.50472917,10.6153846 4.8125,10.9253077 4.8125,11.3076923 C4.8125,11.6900769 4.50472917,12 4.125,12 L0.6875,12 C0.307885417,12 0,11.6900769 0,11.3076923 L0,0.692307692 C0,0.309923077 0.307885417,0 0.6875,0 L4.125,0 C4.50472917,0 4.8125,0.309923077 4.8125,0.692307692 C4.8125,1.07469231 4.50472917,1.38461538 4.125,1.38461538 M11,6 C11,6.20434615 10.9121146,6.38780769 10.7723229,6.5145 L10.7724375,6.51461538 L8.48077083,8.59153846 L8.48065625,8.59142308 C8.35885417,8.70196154 8.19763542,8.76923077 8.02083333,8.76923077 C7.64121875,8.76923077 7.33333333,8.45930769 7.33333333,8.07692308 C7.33333333,7.87269231 7.42121875,7.68911538 7.56101042,7.56242308 L7.56089583,7.56242308 L8.520875,6.69230769 L4.35416667,6.69230769 L4.35416667,6.69230769 C3.97455208,6.69230769 3.66666667,6.38238462 3.66666667,6 C3.66666667,5.61761538 3.97455208,5.30769231 4.35416667,5.30769231 L4.35416667,5.30769231 L8.520875,5.30769231 L7.56089583,4.43769231 L7.56101042,4.43757692 C7.42121875,4.31088462 7.33333333,4.12742308 7.33333333,3.92307692 C7.33333333,3.54080769 7.64121875,3.23076923 8.02083333,3.23076923 C8.19763542,3.23076923 8.35885417,3.29803846 8.48065625,3.40857692 L8.48077083,3.40857692 L10.7724375,5.4855 L10.7723229,5.4855 C10.9121146,5.61219231 11,5.79576923 11,6" id="Fill-1" fill="#FEFEFE" mask="url(#mask-2)"></path>
                </g>
            </g>
        </g>
    </g>
</svg>