<?xml version="1.0" encoding="UTF-8"?>
<svg width="14px" height="14px" viewBox="0 0 13 16" version="1.1" xmlns="http://www.w3.org/2000/svg" xmlns:xlink="http://www.w3.org/1999/xlink">
    <!-- Generator: Sketch 61.2 (89653) - https://sketch.com -->
    <title>Fill 1备份 13</title>
    <desc>Created with Sketch.</desc>
    <g id="流程设计器" stroke="none" stroke-width="1" fill="none" fill-rule="evenodd">
        <g id="流程设计器补充内容" transform="translate(-686.000000, -302.000000)" fill="#1D2C72">
            <path d="M696.5625,308.62069 C696.5625,308.163724 696.198771,307.793103 695.75,307.793103 C695.301365,307.793103 694.9375,308.163724 694.9375,308.62069 L694.9375,315.517241 C694.9375,315.974345 695.301365,316.344828 695.75,316.344828 C696.198771,316.344828 696.5625,315.974345 696.5625,315.517241 L696.5625,308.62069 Z M693.3125,308.62069 C693.3125,308.163724 692.948771,307.793103 692.5,307.793103 C692.051365,307.793103 691.6875,308.163724 691.6875,308.62069 L691.6875,315.517241 C691.6875,315.974345 692.051365,316.344828 692.5,316.344828 C692.948771,316.344828 693.3125,315.974345 693.3125,315.517241 L693.3125,308.62069 Z M690.0625,308.62069 C690.0625,308.163724 689.698635,307.793103 689.25,307.793103 C688.801365,307.793103 688.4375,308.163724 688.4375,308.62069 L688.4375,315.517241 C688.4375,315.974345 688.801365,316.344828 689.25,316.344828 C689.698635,316.344828 690.0625,315.974345 690.0625,315.517241 L690.0625,308.62069 Z M698.1875,306.965517 L698.1875,308.62069 L698.1875,317.172414 C698.1875,317.629379 697.823635,318 697.375,318 L687.625,318 C687.176365,318 686.8125,317.629379 686.8125,317.172414 L686.8125,308.62069 L686.8125,306.965517 L686.8125,306.137931 L698.1875,306.137931 L698.1875,306.965517 Z M686,304.482759 C686,304.025793 686.363865,303.655172 686.8125,303.655172 L690.875,303.655172 L690.875,302.827586 C690.875,302.370621 691.238865,302 691.6875,302 L693.3125,302 C693.761271,302 694.125,302.370621 694.125,302.827586 L694.125,303.655172 L698.1875,303.655172 C698.636271,303.655172 699,304.025793 699,304.482759 L699,305.310345 L686,305.310345 L686,304.482759 Z" id="Fill-1备份-13"></path>
        </g>
    </g>
</svg>