<?xml version="1.0" encoding="UTF-8"?>
<svg width="14px" height="14px" viewBox="0 0 16 16" version="1.1" xmlns="http://www.w3.org/2000/svg" xmlns:xlink="http://www.w3.org/1999/xlink">
    <!-- Generator: Sketch 61.2 (89653) - https://sketch.com -->
    <title>Fill 1备份 12</title>
    <desc>Created with Sketch.</desc>
    <g id="流程设计器" stroke="none" stroke-width="1" fill="none" fill-rule="evenodd">
        <g id="流程设计器补充内容" transform="translate(-729.000000, -302.000000)" fill="#1D2C72">
            <path d="M737.5,308.75 L735.75,308.75 L735.75,310.499875 C735.75,310.914125 735.41425,311.25 735,311.25 C734.585875,311.25 734.25,310.914125 734.25,310.499875 L734.25,308.75 L732.5,308.75 C732.085875,308.75 731.75,308.414125 731.75,308 C731.75,307.58575 732.085875,307.25 732.5,307.25 L734.25,307.25 L734.25,305.5 C734.25,305.08575 734.585875,304.75 735,304.75 C735.41425,304.75 735.75,305.08575 735.75,305.5 L735.75,307.25 L737.5,307.25 C737.91425,307.25 738.25,307.58575 738.25,308 C738.25,308.414125 737.91425,308.75 737.5,308.75 M735,303.499875 C732.51475,303.499875 730.5,305.514625 730.5,308 C730.5,310.485125 732.51475,312.5 735,312.5 C737.48525,312.5 739.5,310.485125 739.5,308 C739.5,305.514625 737.48525,303.499875 735,303.499875 M745,316.5 C745,317.328375 744.328375,318 743.5,318 C743.085875,318 742.710875,317.832 742.439375,317.560625 L738.04325,313.1645 C737.150125,313.691875 736.11225,314 735,314 C731.686375,314 729,311.313625 729,308 C729,304.68625 731.686375,302 735,302 C738.31375,302 741,304.68625 741,308 C741,309.11225 740.692,310.150125 740.1645,311.043125 L744.560625,315.43925 C744.832125,315.71075 745,316.08575 745,316.5" id="Fill-1备份-12"></path>
        </g>
    </g>
</svg>