<?xml version="1.0" encoding="UTF-8"?>
<svg width="14px" height="14px" viewBox="0 0 24 24" version="1.1" xmlns="http://www.w3.org/2000/svg" xmlns:xlink="http://www.w3.org/1999/xlink">
    <!-- Generator: Sketch 57.1 (83088) - https://sketch.com -->
    <title>Fill 1</title>
    <desc>Created with Sketch.</desc>
    <g id="产品分析" stroke="none" stroke-width="1" fill="none" fill-rule="evenodd">
        <g id="图形备份-2" transform="translate(-1541.000000, -460.000000)" fill="#1D2C72">
            <path d="M1552.77911,476.656829 C1550.34595,476.656829 1548.37359,474.685338 1548.37359,472.252175 C1548.37359,469.819011 1550.34595,467.846211 1552.77911,467.846211 C1555.21228,467.846211 1557.18464,469.819011 1557.18464,472.252175 C1557.18464,474.685338 1555.21228,476.656829 1552.77911,476.656829 M1562.39613,469.273556 L1562.06319,469.273556 C1560.85839,469.273556 1560.56995,468.576247 1561.42217,467.724029 L1561.86071,467.28592 C1562.71293,466.433702 1562.71293,465.038647 1561.86115,464.186429 L1560.813,463.139593 C1559.96079,462.286502 1558.5666,462.286502 1557.71439,463.139593 L1557.27671,463.576829 C1556.42406,464.429484 1555.72675,464.140175 1555.72675,462.935375 L1555.72675,462.603738 C1555.72675,461.398502 1554.74057,460.41232 1553.53533,460.41232 L1552.05213,460.41232 C1550.84689,460.41232 1549.86115,461.398502 1549.86115,462.603738 L1549.86115,462.935375 C1549.86115,464.140175 1549.16384,464.429484 1548.31162,463.576829 L1547.87351,463.139593 C1547.02129,462.286502 1545.62668,462.286502 1544.77402,463.139593 L1543.72719,464.186429 C1542.87453,465.038647 1542.87453,466.433702 1543.72719,467.28592 L1544.16529,467.724029 C1545.01751,468.576247 1544.72864,469.273556 1543.5234,469.273556 L1543.19133,469.273556 C1541.98653,469.273556 1540.99991,470.259738 1540.99991,471.464975 L1540.99991,472.946865 C1540.99991,474.152102 1541.98653,475.13872 1543.19133,475.13872 L1543.52253,475.13872 C1544.72777,475.13872 1545.0162,475.836029 1544.16442,476.688247 L1543.72631,477.125484 C1542.87453,477.977702 1542.87409,479.373193 1543.72631,480.225411 L1544.77446,481.273556 C1545.62668,482.125775 1547.02129,482.125775 1547.87308,481.272684 L1548.31162,480.834575 C1549.16428,479.981484 1549.86115,480.270356 1549.86115,481.476465 L1549.86115,481.808975 C1549.86115,483.013775 1550.84689,483.999956 1552.05213,483.999956 L1553.53533,483.999956 C1554.74057,483.999956 1555.72675,483.013775 1555.72675,481.808975 L1555.72675,481.477338 C1555.72675,480.272102 1556.42406,479.984102 1557.27671,480.835447 L1557.71395,481.272684 C1558.5666,482.124902 1559.96079,482.124902 1560.813,481.272684 L1561.86115,480.225411 C1562.71337,479.373193 1562.7138,477.977702 1561.86115,477.125484 L1561.42479,476.688247 C1560.57257,475.836029 1560.86144,475.13872 1562.06624,475.13872 L1562.39613,475.13872 C1563.6018,475.13872 1564.58755,474.152975 1564.58755,472.947738 L1564.58755,471.464975 C1564.58755,470.259738 1563.6018,469.273556 1562.39613,469.273556" id="Fill-1"></path>
        </g>
    </g>
</svg>