<?xml version="1.0" encoding="UTF-8"?>
<svg width="14px" height="14px" viewBox="0 0 16 16" version="1.1" xmlns="http://www.w3.org/2000/svg" xmlns:xlink="http://www.w3.org/1999/xlink">
    <!-- Generator: Sketch 61.2 (89653) - https://sketch.com -->
    <title>Fill 1备份 11</title>
    <desc>Created with Sketch.</desc>
    <g id="流程设计器" stroke="none" stroke-width="1" fill="none" fill-rule="evenodd">
        <g id="流程设计器补充内容" transform="translate(-775.000000, -302.000000)" fill="#1D2C72">
            <path d="M783.5,308.75 L778.5,308.75 C778.085875,308.75 777.75,308.414125 777.75,308 C777.75,307.58575 778.085875,307.25 778.5,307.25 L783.5,307.25 C783.91425,307.25 784.25,307.58575 784.25,308 C784.25,308.414125 783.91425,308.75 783.5,308.75 M781,303.499875 C778.51475,303.499875 776.5,305.514625 776.5,308 C776.5,310.485125 778.51475,312.5 781,312.5 C783.48525,312.5 785.5,310.485125 785.5,308 C785.5,305.514625 783.48525,303.499875 781,303.499875 M791,316.5 C791,317.328375 790.328375,318 789.5,318 C789.085875,318 788.710875,317.832 788.439375,317.560625 L784.04325,313.1645 C783.15025,313.691875 782.11225,314 781,314 C777.68625,314 775,311.313625 775,308 C775,304.68625 777.68625,302 781,302 C784.31375,302 787,304.68625 787,308 C787,309.11225 786.692,310.150125 786.1645,311.043125 L790.560625,315.43925 C790.832125,315.71075 791,316.08575 791,316.5" id="Fill-1备份-11"></path>
        </g>
    </g>
</svg>