<?xml version="1.0" encoding="UTF-8"?>
<svg width="14px" height="14px" viewBox="0 0 14 14" version="1.1" xmlns="http://www.w3.org/2000/svg" xmlns:xlink="http://www.w3.org/1999/xlink">
    <!-- Generator: Sketch 61.2 (89653) - https://sketch.com -->
    <title>形状结合备份 6</title>
    <desc>Created with Sketch.</desc>
    <g id="流程设计器" stroke="none" stroke-width="1" fill="none" fill-rule="evenodd">
        <g id="流程设计器补充内容" transform="translate(-954.000000, -303.000000)" fill="#1D2C72">
            <path d="M966.67151,312.699296 C967.357922,312.699296 967.916412,313.257649 967.916412,313.944061 L967.916412,315.528943 C967.916412,316.215355 967.357922,316.773708 966.67151,316.773708 L955.244765,316.773708 C954.558353,316.773708 954,316.215355 954,315.528943 L954,313.944061 C954,313.257649 954.558353,312.699296 955.244765,312.699296 L966.67151,312.699296 Z M966.649824,313.965884 L955.266451,313.965884 L955.266451,315.507257 L966.649824,315.507257 L966.649824,313.965884 Z M960.958165,303 C961.413027,303 961.781694,303.368804 961.781694,303.823529 L961.781694,308.814804 L962.816733,307.664882 C962.967439,307.497431 963.185812,307.392157 963.428753,307.392157 C963.883616,307.392157 964.252282,307.760824 964.252282,308.215686 C964.252282,308.427608 964.172263,308.620725 964.04091,308.766627 L961.570322,311.511725 C961.419478,311.679039 961.201243,311.784314 960.958165,311.784314 C960.755714,311.784314 960.570324,311.711206 960.426937,311.590012 L960.346008,311.511725 L957.875557,308.766627 C957.744067,308.620725 957.664047,308.427608 957.664047,308.215686 C957.664047,307.760824 958.032851,307.392157 958.487576,307.392157 C958.690142,307.392157 958.875455,307.465264 959.018893,307.586538 L959.099733,307.664745 L960.134635,308.814804 L960.134635,303.823529 C960.134635,303.368804 960.503439,303 960.958165,303 Z" id="形状结合备份-6"></path>
        </g>
    </g>
</svg>