<?xml version="1.0" encoding="UTF-8"?>
<svg width="14px" height="14px" viewBox="0 0 12 12" version="1.1" xmlns="http://www.w3.org/2000/svg" xmlns:xlink="http://www.w3.org/1999/xlink">
    <!-- Generator: Sketch 61.2 (89653) - https://sketch.com -->
    <title>形状结合</title>
    <desc>Created with Sketch.</desc>
    <g id="流程设计器" stroke="none" stroke-width="1" fill="none" fill-rule="evenodd">
        <g transform="translate(-1790.000000, -15.000000)" fill="#FFFFFF" id="top-面板设计">
            <g>
                <path d="M1801.1675,15 C1801.811,15 1802,15.18825 1802,15.83175 L1802,15.83175 L1802,26.1675 C1802,26.811 1801.811,27 1801.1675,27 L1801.1675,27 L1798.1705,27 L1798.1705,23.4765 L1792.55225,23.4765 L1792.55225,27 L1791.99725,27 L1790,25.002 L1790,15.83175 C1790,15.18825 1790.18825,15 1790.83175,15 L1790.83175,15 Z M1794.33125,24 L1794.33125,26.30325 L1793,26.30325 L1793,24 L1794.33125,24 Z M1800.14075,15.59625 L1791.83075,15.59625 L1791.83075,21.0345 L1800.14075,21.0345 L1800.14075,15.59625 Z" id="形状结合"></path>
            </g>
        </g>
    </g>
</svg>