<?xml version="1.0" encoding="UTF-8"?>
<svg width="14px" height="14px" viewBox="0 0 14 14" version="1.1" xmlns="http://www.w3.org/2000/svg" xmlns:xlink="http://www.w3.org/1999/xlink">
    <!-- Generator: Sketch 61.2 (89653) - https://sketch.com -->
    <title>形状结合备份 5</title>
    <desc>Created with Sketch.</desc>
    <g id="流程设计器" stroke="none" stroke-width="1" fill="none" fill-rule="evenodd">
        <g id="流程设计器补充内容" transform="translate(-910.000000, -303.000000)" fill="#1D2C72">
            <path d="M916.958192,307.796443 C917.160758,307.796443 917.346071,307.872534 917.489429,307.998675 L917.570349,308.080157 L920.0408,310.937443 C920.17229,311.0893 920.25231,311.2903 920.25231,311.510729 C920.25231,311.984014 919.883506,312.367871 919.42878,312.367871 C919.226215,312.367871 919.040902,312.29178 918.897544,312.165557 L918.816624,312.084157 L917.781722,310.8873 L917.781722,316.082157 C917.781722,316.555586 917.412918,316.9393 916.958192,316.9393 C916.503329,316.9393 916.134663,316.555586 916.134663,316.082157 L916.134663,310.8873 L915.099624,312.084014 C914.948918,312.2583 914.730682,312.367871 914.487604,312.367871 C914.032741,312.367871 913.664075,311.984014 913.664075,311.510729 C913.664075,311.334386 913.715287,311.170477 913.803095,311.034217 L913.875447,310.9373 L916.346173,308.080157 C916.496878,307.906014 916.715114,307.796443 916.958192,307.796443 Z M922.67151,303 C923.357922,303 923.916412,303.581143 923.916412,304.295571 L923.916412,305.945143 C923.916412,306.659571 923.357922,307.240714 922.67151,307.240714 L911.244765,307.240714 C910.558353,307.240714 910,306.659571 910,305.945143 L910,304.295571 C910,303.581143 910.558353,303 911.244765,303 L922.67151,303 Z M922.649961,304.318286 L911.266588,304.318286 L911.266588,305.922571 L922.649961,305.922571 L922.649961,304.318286 Z" id="形状结合备份-5"></path>
        </g>
    </g>
</svg>