<?xml version="1.0" encoding="UTF-8"?>
<svg width="32px" height="32px" viewBox="0 0 32 32" version="1.1" xmlns="http://www.w3.org/2000/svg" xmlns:xlink="http://www.w3.org/1999/xlink">
    <!-- Generator: Sketch 61.2 (89653) - https://sketch.com -->
    <title>编组 44</title>
    <desc>Created with Sketch.</desc>
    <g id="流程设计器" stroke="none" stroke-width="1" fill="none" fill-rule="evenodd">
        <g id="流程设计器补充内容" transform="translate(-1231.000000, -226.000000)">
            <g id="编组-47" transform="translate(1232.000000, 88.000000)">
                <g id="编组-46">
                    <g id="编组-44" transform="translate(0.000000, 139.000000)">
                        <circle id="椭圆形备份-5" stroke="#37CFC9" fill="#EBFFFE" cx="15" cy="15" r="15"></circle>
                        <path d="M18.9931515,19 C18.4212219,19 17.8412745,19.1887689 17.8412745,19.1887689 C17.5907212,19.2708134 17.2332651,19.1851003 17.0471875,18.999333 L14.9966593,16.9518906 C14.8105817,16.7661233 14.7267299,16.4099304 14.8105817,16.1607954 C14.8105817,16.1607954 15.0133628,15.5588027 15.0133628,14.9734856 C15.0133628,14.4315254 14.8500021,13.9015717 14.8500021,13.9015717 C14.7724976,13.6504357 14.8613605,13.2925751 15.0474381,13.1064743 L17.1233557,11.0343519 C17.3097674,10.8485847 17.6678916,10.7592029 17.9197812,10.8365781 C17.9197812,10.8365781 18.4506201,11.0003335 18.9931515,11.0003335 C21.2060383,11.0003335 23,9.20969692 23,7.00050027 C23,4.79097011 21.2060383,3 18.9931515,3 C16.7802648,3 14.9866372,4.79097011 14.9866372,7.00050027 C14.9866372,7.56747405 15.1723807,8.14045108 15.1723807,8.14045108 C15.2535599,8.39092008 15.1673696,8.74778005 14.981292,8.93354734 L12.9431244,10.9679827 C12.7570468,11.1540835 12.3995908,11.2397966 12.1490375,11.1587527 C12.1490375,11.1587527 11.5747693,10.9733189 11.0065144,10.9733189 C8.79396167,10.9733189 7,12.764289 7,14.9734856 C7,17.1826823 8.79396167,18.9733189 11.0065144,18.9733189 C11.5306719,18.9733189 12.0297741,18.8245716 12.0297741,18.8245716 C12.2819977,18.7491975 12.6407901,18.8399133 12.8268677,19.0256806 L14.9485531,21.1438279 C15.1349647,21.3292617 15.2241617,21.6874557 15.1469913,21.9389253 C15.1469913,21.9389253 14.9866372,22.4622087 14.9866372,22.9998332 C14.9866372,25.2093634 16.7802648,27 18.9931515,27 C21.2060383,27 23,25.2093634 23,22.9998332 C23,20.7906366 21.2060383,19 18.9931515,19" id="Fill-1" fill="#37CFC9" transform="translate(15.000000, 15.000000) scale(-1, 1) translate(-15.000000, -15.000000) "></path>
                    </g>
                </g>
            </g>
        </g>
    </g>
</svg>