<?xml version="1.0" encoding="UTF-8"?>
<svg width="32px" height="32px" viewBox="0 0 32 32" version="1.1" xmlns="http://www.w3.org/2000/svg" xmlns:xlink="http://www.w3.org/1999/xlink">
    <!-- Generator: Sketch 61.2 (89653) - https://sketch.com -->
    <title>编组 75</title>
    <desc>Created with Sketch.</desc>
    <g id="流程设计器" stroke="none" stroke-width="1" fill="none" fill-rule="evenodd">
        <g id="流程设计器补充内容" transform="translate(-1505.000000, -168.000000)">
            <g id="编组-75" transform="translate(1506.000000, 169.000000)">
                <rect id="矩形备份-13" stroke="#48BADE" fill="#DBF6FF" x="0" y="0" width="30" height="30" rx="8"></rect>
                <path d="M20.5004983,6 C19.166343,6 18,6.90002307 18,7.92854239 L18,22.0714796 C18,23.0999769 19.166343,24 20.4993878,24 C21.832461,24 23,23.0999769 23,22.0714796 L23,7.92854239 C23,6.90002307 21.8335716,6 20.5004983,6 Z M9.49940199,6 C8.16643506,6 7,6.90002307 7,7.92854239 L7,22.0714796 C7,23.0999769 8.16643506,24 9.49940199,24 C10.8335649,24 12,23.0999769 12,22.0714796 L12,7.92854239 C11.9988894,6.90002307 10.8324544,6 9.50051258,6 L9.49940199,6 Z" id="Fill-1" fill="#48BADE"></path>
            </g>
        </g>
    </g>
</svg>