<?xml version="1.0" encoding="UTF-8"?>
<svg width="32px" height="32px" viewBox="0 0 32 32" version="1.1" xmlns="http://www.w3.org/2000/svg" xmlns:xlink="http://www.w3.org/1999/xlink">
    <!-- Generator: Sketch 61.2 (89653) - https://sketch.com -->
    <title>编组 71</title>
    <desc>Created with Sketch.</desc>
    <g id="流程设计器" stroke="none" stroke-width="1" fill="none" fill-rule="evenodd">
        <g id="流程设计器补充内容" transform="translate(-1505.000000, -408.000000)">
            <g id="编组-71" transform="translate(1506.000000, 409.000000)">
                <rect id="矩形备份-29" stroke="#48BADE" fill="#DBF6FF" x="0" y="0" width="30" height="30" rx="8"></rect>
                <path d="M10.8377287,5 C11.4865436,5 12.0269129,5.42943593 12.1351472,6.0734221 L19.4863831,6.0734221 C20.9998902,6.0734221 22.2973087,7.36143638 22.2973087,8.86416862 L22.2973087,12.0843091 L23.7025815,12.0843091 C24.4594195,12.0843091 25,12.6210411 25,13.3723234 L25,14.5530416 C25,15.3044916 24.4594195,15.8410559 23.7025815,15.8410559 L19.1620601,15.8410559 C18.5134564,15.8410559 17.8648528,15.3044916 17.8648528,14.6605054 L10.513448,14.6605054 C9.86480209,14.6605054 9.43245594,15.1970697 9.43245594,15.8410559 L9.43245594,19.0612383 L10.8377287,19.0612383 C11.4865436,19.0612383 12.0269129,19.4906742 12.1351472,20.1346604 L17.7566184,20.1346604 C17.972876,19.4906742 18.2971989,18.9539422 18.729714,18.4172521 C19.4863831,17.6659699 20.3512865,17.3439558 21.3242132,17.3439558 C22.2973087,17.3439558 23.2702353,17.773224 23.918839,18.4172521 C24.0269044,18.5245063 24.1350966,18.7392243 24.243162,18.8466881 C24.675677,19.4906742 25,20.2419565 25,20.9934065 C25,21.8521106 24.675677,22.7108567 24.1350966,23.3548429 L23.918839,23.5693931 C23.162001,24.2135889 22.2973087,24.6428571 21.3242132,24.6428571 C20.3512865,24.6428571 19.3783177,24.2135889 18.729714,23.5693931 C18.1891335,23.0328707 17.8648528,22.3886749 17.7566184,21.7446888 L12.2432127,21.7446888 C12.1351472,22.3886749 11.5945667,22.9254069 10.9459631,22.9254069 L6.29724959,22.9254069 C5.54058049,22.9254069 5,22.3886749 5,21.6373927 L5,20.3494203 C5,19.5979703 5.64860368,19.0612383 6.29724959,19.0612383 L7.70269129,19.0612383 L7.70269129,15.8410559 C7.70269129,14.3383236 8.99994088,13.0503513 10.513448,13.0503513 L17.8648528,13.0503513 C17.972876,12.5136193 18.5134564,11.977055 19.1620601,11.977055 L20.5675441,11.977055 L20.5675441,8.75687253 C20.5675441,8.11288636 20.0269636,7.68345043 19.4863831,7.68345043 L12.1351472,7.68345043 C12.0269129,8.3274366 11.4865436,8.86416862 10.8377287,8.86416862 L6.29724959,8.86416862 C5.54058049,8.75687253 5,8.22014052 5,7.46869054 L5,6.28797235 C5,5.53669009 5.64860368,5 6.29724959,5 L10.8377287,5 Z M20.8850415,18.9285714 C20.7763864,18.9285714 20.6677739,19.0318731 20.6677739,19.0318731 C20.558949,19.0318731 20.4503364,19.1353766 20.4503364,19.2386782 C20.3415115,19.3420202 20.3415115,19.4454834 20.3415115,19.5488254 L20.3415115,19.5488254 L20.3415115,19.6521674 L20.2328989,19.7556306 C20.2328989,19.8589726 20.1242439,19.8589726 20.1242439,19.9622742 C20.015419,20.1690794 19.9068065,20.272583 19.9068065,20.272583 L19.9068065,20.272583 L19.7981514,20.272583 L19.7981514,22.5468341 L20.015419,22.5468341 L20.2328989,22.6503377 C20.4503364,22.7536393 20.6677739,22.8571429 20.7763864,22.8571429 L20.7763864,22.8571429 L21.537184,22.8571429 C21.7546215,22.8571429 22.080714,22.7536393 22.1895388,22.6503377 C22.2981514,22.5468341 22.4068065,22.3401905 22.4068065,22.1333853 C22.6242439,22.0300433 22.6242439,21.9265801 22.6242439,21.7199365 L22.6242439,21.7199365 L22.6242439,21.616433 C22.7328565,21.5131313 22.7328565,21.4096278 22.7328565,21.3063262 L22.7328565,21.3063262 L23.3852113,21.3063262 C23.7112614,21.3063262 23.9285714,21.0994806 23.9285714,20.7893738 L23.9285714,20.7893738 L23.9285714,20.6860318 C23.9285714,20.3758846 23.7112614,20.1690794 23.2763864,20.0657778 L23.2763864,20.0657778 L21.7546215,20.0657778 L21.7546215,19.8589726 C21.7546215,19.5488254 21.6460089,19.4454834 21.6460089,19.3420202 C21.6460089,19.2386782 21.537184,19.1353766 21.3199164,19.0318731 C21.211134,18.9285714 20.9938239,18.9285714 20.8850415,18.9285714 Z M19.4721014,20.4792266 L19.3632765,20.4792266 C19.2546215,20.4792266 19.1460089,20.4792266 19.037184,20.5827301 C18.9285714,20.6860318 18.9285714,20.7893738 18.9285714,20.892837 L18.9285714,20.892837 L18.9285714,22.3401905 C18.9285714,22.4435325 18.9285714,22.5468341 19.037184,22.6503377 C19.1460089,22.7536393 19.2546215,22.7536393 19.3632765,22.7536393 L19.3632765,22.7536393 L19.4721014,22.7536393 L19.4721014,20.4792266 Z" id="形状结合" fill="#48BADE"></path>
            </g>
        </g>
    </g>
</svg>