<?xml version="1.0" encoding="UTF-8"?>
<svg width="32px" height="32px" viewBox="0 0 32 32" version="1.1" xmlns="http://www.w3.org/2000/svg" xmlns:xlink="http://www.w3.org/1999/xlink">
    <!-- Generator: Sketch 61.2 (89653) - https://sketch.com -->
    <title>编组 57</title>
    <desc>Created with Sketch.</desc>
    <g id="流程设计器" stroke="none" stroke-width="1" fill="none" fill-rule="evenodd">
        <g id="流程设计器补充内容" transform="translate(-1505.000000, -588.000000)">
            <g id="编组-57" transform="translate(1506.000000, 589.000000)">
                <rect id="矩形备份-32" stroke="#48BADE" fill="#DBF6FF" x="0" y="0" width="30" height="30" rx="8"></rect>
                <path d="M4.22441096,14.3142192 C4.11227397,14.4263836 4,14.5947123 4,14.8191233 C4,14.9874795 4.05608219,15.1558356 4.22441096,15.3241644 L7.70323288,18.9151233 C7.81550685,18.9713151 7.98372603,19.0834795 8.20827397,19.0834795 C8.37649315,19.0834795 8.6010411,19.0273973 8.71317808,18.8590411 L12.3603288,15.2680822 C12.4724932,15.1558356 12.5847671,14.9874795 12.5847671,14.7630685 C12.5847671,14.5386301 12.5286849,14.3703014 12.3603288,14.258137 L8.71317808,10.7231507 C8.6010411,10.6109863 8.43268493,10.4987123 8.20827397,10.4987123 C8.03991781,10.4987123 7.87156164,10.5549041 7.70323288,10.7231507 L4.22441096,14.3142192 Z M23.9750685,5.72945205 C23.9750685,5.56109589 23.9188767,5.39276712 23.7505479,5.22441096 C23.6383836,5.11227397 23.4139452,5 23.2456164,5 L17.6907123,5 C17.5223562,5 17.354137,5.05608219 17.1857808,5.22441096 C17.0735342,5.33668493 16.9613699,5.56109589 16.9613699,5.72945205 L16.9613699,7.13216438 L13.8191233,7.13216438 C13.6509041,7.13216438 13.4825479,7.18824658 13.3142192,7.35660274 C13.2019452,7.46884932 13.0897808,7.69328767 13.0897808,7.86161644 L13.0897808,21.8890137 C13.0897808,22.0573699 13.145863,22.225589 13.3142192,22.3939452 C13.4263562,22.5062192 13.6509041,22.6183562 13.8191233,22.6183562 L16.9613699,22.6183562 L16.9613699,24.6944658 C16.9613699,24.8627945 17.0174521,25.0311507 17.1857808,25.1994795 C17.2979452,25.3116438 17.5223562,25.4239178 17.6907123,25.4239178 L23.2456164,25.4239178 C23.4139452,25.4239178 23.5823014,25.3678356 23.7505479,25.1994795 C23.8627945,25.0872329 23.9750685,24.8627945 23.9750685,24.6944658 L23.9750685,20.1496164 C23.9750685,19.9812603 23.9188767,19.8129315 23.7505479,19.6445753 C23.6383836,19.5324384 23.4139452,19.4201644 23.2456164,19.4201644 L17.6907123,19.4201644 C17.5223562,19.4201644 17.354137,19.4762466 17.1857808,19.6445753 C17.0735342,19.7568493 16.9613699,19.9812603 16.9613699,20.1496164 L16.9613699,20.4861918 L15.5585479,20.4861918 C15.3901918,20.4861918 15.2219726,20.4301096 15.0536164,20.2617808 C14.9413425,20.1496164 14.8292055,19.9252055 14.8292055,19.7568493 L14.8292055,9.54484932 C14.8292055,9.37649315 14.8852603,9.20827397 15.0536164,9.03991781 C15.1657808,8.92764384 15.3901918,8.81550685 15.5585479,8.81550685 L16.9613699,8.81550685 L16.9613699,10.2182192 C16.9613699,10.3865479 17.0174521,10.5549041 17.1857808,10.7231507 C17.2979452,10.8353973 17.5223562,10.9476712 17.6907123,10.9476712 L23.2456164,10.9476712 C23.4139452,10.9476712 23.5823014,10.8914795 23.7505479,10.7231507 C23.8627945,10.6109863 23.9750685,10.3865479 23.9750685,10.2182192 L23.9750685,5.72945205 Z" id="Fill-1" fill="#48BADE"></path>
            </g>
        </g>
    </g>
</svg>