<?xml version="1.0" encoding="UTF-8"?>
<svg width="32px" height="32px" viewBox="0 0 32 32" version="1.1" xmlns="http://www.w3.org/2000/svg" xmlns:xlink="http://www.w3.org/1999/xlink">
    <!-- Generator: Sketch 61.2 (89653) - https://sketch.com -->
    <title>编组 69</title>
    <desc>Created with Sketch.</desc>
    <g id="流程设计器" stroke="none" stroke-width="1" fill="none" fill-rule="evenodd">
        <g id="流程设计器补充内容" transform="translate(-1505.000000, -528.000000)">
            <g id="编组-69" transform="translate(1506.000000, 529.000000)">
                <rect id="矩形备份-31" stroke="#48BADE" fill="#DBF6FF" x="0" y="0" width="30" height="30" rx="8"></rect>
                <path d="M8.43815203,5.92639616 L8.43815203,8.11692644 C8.43815203,9.14547978 9.26328547,9.96445487 10.3045586,9.96445487 L10.3045586,9.96445487 L19.6758248,9.96445487 C20.7170979,9.92641744 21.5422039,9.12646107 21.5422039,8.11692644 L21.5422039,8.11692644 L21.5422039,5.92639616 L23.1139768,5.92639616 C24.135551,5.92639616 24.9803834,6.74547765 25,7.73588717 L25,7.73588717 L25,24.1167988 C25,25.1073147 24.1552774,25.9263962 23.1335934,25.9263962 L23.1335934,25.9263962 L6.86637914,25.9263962 C5.84483239,25.9263962 5,25.1073147 5,24.1167988 L5,24.1167988 L5,7.73588717 C5,6.74547765 5.84483239,5.92639616 6.86637914,5.92639616 L6.86637914,5.92639616 L8.43815203,5.92639616 Z M19.4597674,13.4502527 C19.0865025,13.1263759 18.4970431,13.1263759 18.1433949,13.5073886 L18.1433949,13.5073886 L13.6836687,18.2120865 L11.8566051,16.2501532 C11.6208213,16.0025641 11.3064887,15.9073908 10.9725394,15.9645267 C10.6385079,16.0406813 10.3831075,16.2501532 10.2848322,16.5740299 C10.1866667,16.8978003 10.2455989,17.2215706 10.4813827,17.4692661 L10.4813827,17.4692661 L12.9960437,20.1930385 C13.1532787,20.3834917 13.4282683,20.5168089 13.6836687,20.5168089 C13.9390416,20.5168089 14.2141684,20.4216355 14.3712662,20.2311558 L14.3712662,20.2311558 L19.518727,14.8025498 C19.8722655,14.4216435 19.8526489,13.8501777 19.4597674,13.4502527 Z M18.5560028,5 C19.0275429,5 19.440041,5.18163138 19.6758248,5.49050621 C19.7741,5.65389835 19.8526489,5.83563121 19.8330597,5.98091095 L19.8330597,6.94368412 C19.8330597,7.48857828 19.2829433,7.94273284 18.5560028,7.94273284 L18.5560028,7.94273284 L11.5225461,7.94273284 C10.7957153,7.94273284 10.2455989,7.48857828 10.2455989,6.94368412 L10.2455989,6.94368412 L10.2455989,5.98091095 C10.2455989,5.81739197 10.3045586,5.63576058 10.4027241,5.49050621 C10.6385079,5.21798303 11.0707324,5 11.5225461,5 L11.5225461,5 Z" id="形状结合" fill="#48BADE"></path>
            </g>
        </g>
    </g>
</svg>