<?xml version="1.0" encoding="UTF-8"?>
<svg width="32px" height="32px" viewBox="0 0 32 32" version="1.1" xmlns="http://www.w3.org/2000/svg" xmlns:xlink="http://www.w3.org/1999/xlink">
    <!-- Generator: Sketch 61.2 (89653) - https://sketch.com -->
    <title>编组 72</title>
    <desc>Created with Sketch.</desc>
    <g id="流程设计器" stroke="none" stroke-width="1" fill="none" fill-rule="evenodd">
        <g id="流程设计器补充内容" transform="translate(-1505.000000, -348.000000)">
            <g id="编组-72" transform="translate(1506.000000, 349.000000)">
                <rect id="矩形备份-28" stroke="#48BADE" fill="#DBF6FF" x="0" y="0" width="30" height="30" rx="8"></rect>
                <path d="M21.7888305,22.454139 C22.3242194,22.454139 22.7582983,23.0240956 22.7582983,23.7271027 C22.7582983,24.4300842 22.3242194,25.0000408 21.7888305,25.0000408 L21.7888305,25.0000408 L8.21104858,25.0000408 C7.6755845,25.0000408 7.24160576,24.4300842 7.24160576,23.7271027 C7.24160576,23.0240956 7.6755845,22.454139 8.21104858,22.454139 L8.21104858,22.454139 Z M13.9030142,4.00004077 C13.889928,4.02817909 13.877041,4.05640095 13.8643538,4.08470408 C15.3421458,3.81764828 16.8690947,4.1883763 18.0481517,5.10770428 C19.2831753,6.07124291 20.0014862,7.53205499 20,9.07629909 C20.0014862,10.5961462 19.3046312,12.0366059 18.1016888,13.0000408 C17.0650455,12.7910809 16.1124896,12.3374608 15.3175746,11.6948147 C16.1060467,12.4413657 17.0826091,12.9799792 18.1781654,13.2200319 C18.0185776,13.3587802 17.8507538,13.486518 17.6755201,13.6033993 C17.2515297,13.9032765 17.0022723,14.4011383 17.0118601,14.9291059 C17.0118601,15.8125424 17.6907905,16.5289983 18.5278317,16.5289983 L18.5278317,16.5289983 L21.5002706,16.5289983 C22.1700889,16.5298966 22.8106932,16.8106016 23.2743114,17.3064871 C23.7460405,17.8109707 24.0064378,18.4845907 24,19.183363 C24,20.638296 22.8816879,21.8176058 21.5031996,21.8176058 L21.5031996,21.8176058 L8.55408104,21.8176058 C7.87262227,21.8159119 7.22095322,21.5310748 6.74797247,21.0282852 C6.26920901,20.5229033 6,19.8374515 6,19.1226125 C6,17.6906502 7.10069285,16.5292806 8.45855365,16.5292806 L8.45855365,16.5292806 L11.4962046,16.5292806 C12.3340218,16.5292806 13.0125767,15.812953 13.0125767,14.9294909 C13.0208878,14.4004453 12.7694776,13.9023782 12.3433343,13.60381 C10.634205,12.4657961 9.74269113,10.3541054 10.0842466,8.25242432 C10.4254266,6.15074322 11.9324113,4.47295559 13.9030142,4.00004077 Z" id="形状结合" fill="#48BADE"></path>
            </g>
        </g>
    </g>
</svg>