<?xml version="1.0" encoding="UTF-8"?>
<svg width="32px" height="32px" viewBox="0 0 32 32" version="1.1" xmlns="http://www.w3.org/2000/svg" xmlns:xlink="http://www.w3.org/1999/xlink">
    <!-- Generator: Sketch 61.2 (89653) - https://sketch.com -->
    <title>编组 73</title>
    <desc>Created with Sketch.</desc>
    <g id="流程设计器" stroke="none" stroke-width="1" fill="none" fill-rule="evenodd">
        <g id="流程设计器补充内容" transform="translate(-1505.000000, -288.000000)">
            <g id="编组-73" transform="translate(1506.000000, 289.000000)">
                <rect id="矩形备份-27" stroke="#48BADE" fill="#DBF6FF" x="0" y="0" width="30" height="30" rx="8"></rect>
                <path d="M24.2064131,7.00023257 L5.63521801,7.00023257 C4.96855017,7.00023257 5.00023882,7.79390174 5.00023882,7.79390174 C5.00023882,7.79390174 5.63521801,10.9365608 5.63521801,11.6034479 C5.63521801,12.2700335 6.27008755,12.2381256 6.27008755,12.2381256 L7.22255634,12.2381256 C7.22255634,12.2381256 8.33360545,20.5239132 8.33360545,21.7618814 C8.33360545,22.9997126 10.7145307,23.1904201 10.7145307,23.1904201 L19.1271004,23.1904201 C20.9681398,23.1904201 21.6668253,21.9206811 21.6668253,21.9206811 L22.777984,12.2383449 L23.7302335,12.2383449 C24.4289464,12.2383449 24.5240123,11.444758 24.5240123,11.444758 C24.5240123,11.444758 25,8.30176996 25,7.63532141 C25,6.96884546 24.2064131,7.00023257 24.2064131,7.00023257 Z M18.0159416,18.4287067 L16.7460929,19.8572454 L14.9999549,17.9525271 L13.2539266,19.6985554 L11.9841601,18.4287067 L13.7302981,16.841478 L11.9841601,15.095532 L13.4127263,13.8256832 L14.9999549,15.5716019 L16.7460929,13.8256832 L18.0159416,15.095532 L16.2699133,16.841478 L18.0159416,18.4287067 Z" id="Fill-1" fill="#48BADE"></path>
            </g>
        </g>
    </g>
</svg>