<?xml version="1.0" encoding="UTF-8"?>
<svg width="32px" height="32px" viewBox="0 0 32 32" version="1.1" xmlns="http://www.w3.org/2000/svg" xmlns:xlink="http://www.w3.org/1999/xlink">
    <!-- Generator: Sketch 61.2 (89653) - https://sketch.com -->
    <title>编组 76</title>
    <desc>Created with Sketch.</desc>
    <g id="流程设计器" stroke="none" stroke-width="1" fill="none" fill-rule="evenodd">
        <g id="流程设计器补充内容" transform="translate(-1505.000000, -108.000000)">
            <g id="编组-76" transform="translate(1506.000000, 109.000000)">
                <rect id="矩形备份-10" stroke="#48BADE" fill="#DBF6FF" x="0" y="0" width="30" height="30" rx="8"></rect>
                <path d="M15.000061,5 C20.5228705,5 25,9.47712949 25,15.000061 C25,20.5228705 20.5228705,25 15.000061,25 C9.47712949,25 5,20.5228705 5,15.000061 C5,9.47712949 9.47712949,5 15.000061,5 Z M12.9927697,9.17074077 C12.2668871,9.17074077 11.6731852,9.77537133 11.6731852,10.5142513 L11.6731852,10.5142513 L11.6731852,18.6422913 C11.6731852,18.9781279 11.805076,19.2467907 11.9370635,19.4483451 C12.3989067,20.0529429 13.1905736,20.1873563 13.7844366,19.7842801 L13.7844366,19.7842801 L19.4585433,15.6866076 C19.5904341,15.6194665 19.7224215,15.4850859 19.7883669,15.4179448 C20.1842648,14.8133143 20.0522774,13.9401522 19.4585433,13.5370761 L19.4585433,13.5370761 L13.7844366,9.43940351 C13.5205583,9.23801305 13.2566479,9.17074077 12.9927697,9.17074077 Z" id="形状结合" fill="#48BADE"></path>
            </g>
        </g>
    </g>
</svg>