<?xml version="1.0" encoding="UTF-8"?>
<svg width="32px" height="32px" viewBox="0 0 32 32" version="1.1" xmlns="http://www.w3.org/2000/svg" xmlns:xlink="http://www.w3.org/1999/xlink">
    <!-- Generator: Sketch 61.2 (89653) - https://sketch.com -->
    <title>编组 56</title>
    <desc>Created with Sketch.</desc>
    <g id="流程设计器" stroke="none" stroke-width="1" fill="none" fill-rule="evenodd">
        <g id="流程设计器补充内容" transform="translate(-1505.000000, -648.000000)">
            <g id="编组-56" transform="translate(1506.000000, 649.000000)">
                <rect id="矩形备份-33" stroke="#48BADE" fill="#DBF6FF" x="0" y="0" width="30" height="30" rx="8"></rect>
                <path d="M24.8420627,24.208752 C24.3643652,25.237047 23.0891171,25.3166149 22.7093311,25.3166149 L7.06760435,25.3166149 C6.79901317,25.3011704 5.71070626,25.1830968 5.21685271,24.2533459 C5.00835257,23.8613045 4.84436726,23.2048625 5.24650289,22.3068176 C5.97929744,20.674713 7.67676419,20.5161834 8.08229972,20.5019776 C10.9720731,20.0546419 11.910574,19.060135 11.9194296,19.050647 L11.9868739,18.9805407 C12.2952095,18.6897053 12.4004215,18.1789578 12.4281214,17.7350219 C10.5591316,16.3133678 9.37713008,13.5680502 9.37713008,10.5507152 C9.37713008,5.71507238 12.3768595,4 14.9461209,4 C17.5161202,4 20.5164295,5.71578398 20.5164295,10.5507152 C20.5164295,13.5680502 19.3357985,16.3127353 17.4668087,17.7343103 C17.4958263,18.1795639 17.6010384,18.6917611 17.9067121,18.9805407 L17.991024,19.0709409 C17.9930798,19.0709409 18.9363248,20.0580418 21.8118924,20.5026892 C22.4737637,20.5289395 23.7165942,20.889275 24.5235537,22.103694 C25.1537191,23.0523947 25.0444746,23.7729602 24.8413511,24.208752 L24.8420627,24.208752 Z" id="Fill-1" fill="#48BADE"></path>
            </g>
        </g>
    </g>
</svg>