<?xml version="1.0" encoding="UTF-8"?>
<svg width="32px" height="32px" viewBox="0 0 32 32" version="1.1" xmlns="http://www.w3.org/2000/svg" xmlns:xlink="http://www.w3.org/1999/xlink">
    <!-- Generator: Sketch 61.2 (89653) - https://sketch.com -->
    <title>编组 70</title>
    <desc>Created with Sketch.</desc>
    <g id="流程设计器" stroke="none" stroke-width="1" fill="none" fill-rule="evenodd">
        <g id="流程设计器补充内容" transform="translate(-1505.000000, -468.000000)">
            <g id="编组-70" transform="translate(1506.000000, 469.000000)">
                <rect id="矩形备份-30" stroke="#48BADE" fill="#DBF6FF" x="0" y="0" width="30" height="30" rx="8"></rect>
                <path d="M15.5042862,5.67762498 C17.3913192,5.7584455 19.2210921,6.34980081 20.7984694,7.38859934 C22.3892386,8.40738322 23.6738101,9.83879714 24.5149236,11.5301964 C25.2700884,13.0156763 25.6606525,14.6596616 25.6543128,16.3259766 C25.6226452,17.0279253 25.0443595,17.5806873 24.3417368,17.5806873 C23.6390262,17.5806873 23.0608284,17.0279253 23.0291214,16.3259766 C23.0298247,15.0671634 22.7349383,13.8256396 22.1683156,12.7014492 C21.5363449,11.4282184 20.5687258,10.3514125 19.3700152,9.58730996 C18.1834364,8.80310484 16.8054438,8.35759568 15.3843156,8.29875319 C13.9941031,8.22994733 12.6099566,8.52436491 11.3680811,9.15290703 C10.0947038,9.78499495 9.01801519,10.7524968 8.25394192,11.9512074 C7.45438149,13.1811854 7.03073313,14.4964382 6.96535584,15.936907 C6.89657929,17.3271195 7.19087965,18.7112953 7.81953899,19.9531708 C8.45150969,21.2265188 9.41912874,22.3032074 10.6178394,23.0672807 C11.8478174,23.8668411 13.1630408,24.2906067 14.603539,24.3558667 C15.7894438,24.4092001 16.9100884,24.219984 17.9907917,23.785581 L18.3878613,23.6096396 C18.7031141,23.4625627 19.0639346,23.4467678 19.3908503,23.5656836 C19.7176489,23.6846286 19.9839053,23.9286726 20.1308943,24.2439253 L20.186865,24.3865481 C20.3963302,25.0189876 20.0982789,25.7078667 19.4938833,25.9883063 C17.9295463,26.7218155 16.2093119,27.0612147 14.4835683,26.9769656 C12.5965353,26.8962623 10.7667624,26.3049363 9.18938515,25.2660206 C7.59861592,24.2473539 6.31416171,22.8159107 5.47293094,21.1245114 C4.64438881,19.4825774 4.25555365,17.6539473 4.34425694,15.8169363 C4.42507746,13.9299327 5.01643277,12.1001305 6.0552313,10.5227532 C7.07398588,8.93198396 8.50531189,7.64752974 10.1968284,6.80629898 C11.8386452,5.97778615 13.6673046,5.58892169 15.5042862,5.67762498 Z M21.6565207,19.3492147 C22.4811654,18.8731415 23.4971947,18.8731415 24.3218101,19.3492147 C25.1464547,19.8254052 25.6543522,20.7053466 25.654235,21.6574931 C25.6543522,22.6096396 25.1464547,23.4895517 24.3218101,23.9657422 C23.4971947,24.4418448 22.4811654,24.4418448 21.6565207,23.9657422 C20.8319053,23.4895517 20.3240079,22.6096396 20.3241251,21.6574931 C20.3240079,20.7053466 20.8319053,19.8254052 21.6565207,19.3492147 Z M19.4552899,12.0258448 L20.2841544,12.8547092 C20.4093998,12.9797202 20.4799053,13.1494785 20.4799053,13.3264455 C20.4799053,13.5034125 20.4093998,13.6731708 20.2841544,13.7981818 L13.5348503,20.5474858 C13.2746599,20.807559 12.8528577,20.807559 12.5926672,20.5474858 L9.22534119,17.1801598 C9.10009577,17.0551488 9.02959028,16.8853906 9.02959028,16.7084235 C9.02959028,16.5314565 9.10009577,16.3616982 9.22534119,16.2367166 L9.23070383,16.2314418 L10.000843,15.4798228 C10.2590994,15.2281305 10.6707331,15.2275444 10.9296635,15.4784748 L13.0591287,17.537288 L18.513224,12.0298594 C18.7722716,11.7686433 19.1939566,11.7669144 19.4552899,12.0258448 Z M22.0563742,3.12588872 L26.7935463,7.06751509 C27.0188357,7.25409385 27.0493998,7.58719275 26.864169,7.8137422 L26.0033632,8.86238689 C25.9116709,8.97306821 25.7796855,9.04257736 25.6367405,9.05561766 C25.4936489,9.06854073 25.3512313,9.02402791 25.2411361,8.93174952 L20.5119639,4.94742718 C20.4038906,4.85678982 20.3364621,4.72685575 20.3244474,4.58628432 C20.3124328,4.44571289 20.3569749,4.30619641 20.4479639,4.19859202 L21.300887,3.19252608 C21.4920372,2.9672367 21.8287991,2.93749311 22.0563742,3.12588872 Z M8.68834486,3.19114879 L8.68696757,3.19252608 L9.53713606,4.19583744 C9.70507746,4.39305355 9.70381738,4.6755737 9.54789064,4.86880447 L9.47190529,4.94607919 L4.73332654,8.88506821 C4.50554632,9.07437224 4.16775877,9.04462865 3.97646207,8.81843084 L3.12632288,7.81637956 C3.03451335,7.70842352 2.9897368,7.56820374 3.00198588,7.42695832 C3.01435218,7.28580081 3.08257196,7.15542718 3.19167086,7.06487773 L7.93148039,3.12451143 C8.15928991,2.93529531 8.49707746,2.96506821 8.68834486,3.19114879 Z" id="形状结合" fill="#48BADE"></path>
            </g>
        </g>
    </g>
</svg>