<?xml version="1.0" encoding="UTF-8"?>
<svg width="32px" height="32px" viewBox="0 0 32 32" version="1.1" xmlns="http://www.w3.org/2000/svg" xmlns:xlink="http://www.w3.org/1999/xlink">
    <!-- Generator: Sketch 61.2 (89653) - https://sketch.com -->
    <title>编组 43</title>
    <desc>Created with Sketch.</desc>
    <g id="流程设计器" stroke="none" stroke-width="1" fill="none" fill-rule="evenodd">
        <g id="流程设计器补充内容" transform="translate(-1231.000000, -166.000000)">
            <g id="编组-47" transform="translate(1232.000000, 88.000000)">
                <g id="编组-46">
                    <g id="编组-43" transform="translate(0.000000, 79.000000)">
                        <circle id="椭圆形备份-4" stroke="#37CFC9" fill="#EBFFFE" cx="15" cy="15" r="15"></circle>
                        <path d="M20.3347639,6 L15.6825025,11.5391031 L18.5329441,11.5391031 L18.5329441,14.3481887 L18.5329441,14.3638689 C18.5329441,14.7995774 18.3359948,15.4044316 17.8402948,16.1554116 C17.3472562,16.9093942 16.5810836,17.7644638 15.6841659,18.6482249 C15.4632633,18.8687481 15.2340436,19.0906058 15.0001663,19.313798 C14.7656237,19.0906058 14.5367367,18.8687481 14.3158341,18.6482249 C13.4192491,17.7644638 12.6530765,16.9093942 12.1600379,16.1554116 C11.6643379,15.4044316 11.4673886,14.7995774 11.4673886,14.3638689 L11.4673886,14.3481887 L11.4673886,11.5391031 L14.3178302,11.5391031 L9.66556881,6 L5,11.5391031 L7.92795715,11.5391031 L7.92795715,14.3481887 C7.94924896,16.2544969 8.88974832,17.8011621 9.99026898,19.1760127 C10.714856,20.0654452 11.5532212,20.9161778 12.4138763,21.7415552 L12.4504716,21.7415552 L12.4504716,30 L17.640684,30 L17.640684,21.6881759 C18.482376,20.8798132 19.3011128,20.0467625 20.009731,19.1760127 C21.1105844,17.8011621 22.050751,16.2544969 22.0723755,14.3481887 L22.0723755,11.5391031 L25,11.5391031 L20.3347639,6 Z" id="Fill-1" fill="#37CFC9"></path>
                    </g>
                </g>
            </g>
        </g>
    </g>
</svg>