<?xml version="1.0" encoding="UTF-8"?>
<svg width="32px" height="32px" viewBox="0 0 32 32" version="1.1" xmlns="http://www.w3.org/2000/svg" xmlns:xlink="http://www.w3.org/1999/xlink">
    <!-- Generator: Sketch 61.2 (89653) - https://sketch.com -->
    <title>编组 53</title>
    <desc>Created with Sketch.</desc>
    <g id="流程设计器" stroke="none" stroke-width="1" fill="none" fill-rule="evenodd">
        <g id="流程设计器补充内容" transform="translate(-1231.000000, -524.000000)">
            <g id="编组-65" transform="translate(1232.000000, 388.000000)">
                <g id="编组-53" transform="translate(0.000000, 137.000000)">
                    <rect id="矩形备份-21" stroke="#5A6CE6" fill="#EBEEFF" x="0" y="0" width="30" height="30"></rect>
                    <path d="M17.75,15.6433333 L20.3452778,18.2388889 C20.71,18.6036111 20.71,19.2005556 20.3452778,19.565 L19.6055556,20.3047222 C19.2408333,20.6697222 18.6441667,20.6697222 18.2788889,20.3047222 L15.6838889,17.7094444 C15.3188889,17.3447222 14.7222222,17.3447222 14.3575,17.7094444 L11.7619444,20.3047222 C11.3972222,20.6697222 10.8002778,20.6697222 10.4358333,20.3047222 L9.69611111,19.565 C9.33138889,19.2005556 9.33138889,18.6036111 9.69611111,18.2388889 L12.2916667,15.6433333 C12.6561111,15.2786111 12.6561111,14.6816667 12.2916667,14.3172222 L9.69611111,11.7216667 C9.33111111,11.3566667 9.33111111,10.76 9.69611111,10.395 L10.4355556,9.65555556 C10.8,9.29083333 11.3972222,9.29083333 11.7619444,9.65555556 L14.3575,12.2511111 C14.7222222,12.6158333 15.3188889,12.6158333 15.6838889,12.2511111 L18.2794444,9.65555556 C18.6441667,9.29083333 19.2408333,9.29083333 19.6055556,9.65555556 L20.3455556,10.3952778 C20.71,10.76 20.71,11.3566667 20.3455556,11.7216667 L17.75,14.3172222 C17.3852778,14.6816667 17.3852778,15.2786111 17.75,15.6433333 M15,5 C9.47694444,5 5,9.47694444 5,15 C5,20.5227778 9.47694444,25 15,25 C20.5222222,25 25,20.5227778 25,15 C25,9.47694444 20.5222222,5 15,5" id="Fill-1" fill="#5A6CE6"></path>
                </g>
            </g>
        </g>
    </g>
</svg>