<?xml version="1.0" encoding="UTF-8"?>
<svg width="32px" height="32px" viewBox="0 0 32 32" version="1.1" xmlns="http://www.w3.org/2000/svg" xmlns:xlink="http://www.w3.org/1999/xlink">
    <!-- Generator: Sketch 61.2 (89653) - https://sketch.com -->
    <title>编组 61</title>
    <desc>Created with Sketch.</desc>
    <g id="流程设计器" stroke="none" stroke-width="1" fill="none" fill-rule="evenodd">
        <g id="流程设计器补充内容" transform="translate(-1231.000000, -764.000000)">
            <g id="编组-65" transform="translate(1232.000000, 388.000000)">
                <g id="编组-61" transform="translate(0.000000, 377.000000)">
                    <rect id="矩形备份-25" stroke="#5A6CE6" fill="#EBEEFF" x="0" y="0" width="30" height="30"></rect>
                    <path d="M18.0530948,20.5949231 C18.5074419,20.5949231 18.9031127,20.9611843 18.9324508,21.4447979 C18.9616816,21.9723828 18.5660107,22.4120608 18.0824329,22.4120608 L18.0824329,22.4120608 L8.84998211,22.4120608 C8.38096601,22.4120608 8,22.0016852 8,21.5034741 C8,21.005263 8.38096601,20.5949231 8.84998211,20.5949231 L8.84998211,20.5949231 Z M15.5101109,7 C18.5582326,7 21.0349052,9.50726297 21.0349052,12.610161 C21.0349052,13.9954204 20.5366583,15.3251878 19.5987335,16.378068 L19.5987335,16.378068 L22.8960501,19.9934526 C23.0573381,20.1736315 23.1452451,20.3951342 23.1599141,20.6029696 C23.1599141,21.0877996 22.778805,21.4757066 22.3246011,21.4757066 C22.0900751,21.4757066 21.870254,21.378712 21.7237782,21.2124866 L21.7237782,21.2124866 L18.1772665,17.5139177 C17.4738676,18.0264758 16.6972308,18.2480501 15.5101109,18.2204293 C12.4766583,18.1649374 9.99998569,15.713059 9.99998569,12.610161 C9.99998569,9.50726297 12.4619893,7 15.5101109,7 Z M15.5101109,9.14715564 C13.5316852,9.14715564 11.9343685,10.6986047 11.9343685,12.6240072 C11.9343685,14.5357424 13.5316852,16.1009302 15.5101109,16.1009302 C17.4885367,16.1009302 19.1005224,14.5357424 19.0858175,12.6240072 C19.0858175,10.7124866 17.4885367,9.14715564 15.5101109,9.14715564 Z" id="形状结合" fill="#5A6CE6"></path>
                </g>
            </g>
        </g>
    </g>
</svg>