<?xml version="1.0" encoding="UTF-8"?>
<svg width="32px" height="32px" viewBox="0 0 32 32" version="1.1" xmlns="http://www.w3.org/2000/svg" xmlns:xlink="http://www.w3.org/1999/xlink">
    <!-- Generator: Sketch 61.2 (89653) - https://sketch.com -->
    <title>编组 63</title>
    <desc>Created with Sketch.</desc>
    <g id="流程设计器" stroke="none" stroke-width="1" fill="none" fill-rule="evenodd">
        <g id="流程设计器补充内容" transform="translate(-1231.000000, -584.000000)">
            <g id="编组-65" transform="translate(1232.000000, 388.000000)">
                <g id="编组-63" transform="translate(0.000000, 197.000000)">
                    <rect id="矩形备份-22" stroke="#5A6CE6" fill="#EBEEFF" x="0" y="0" width="30" height="30"></rect>
                    <path d="M14.0797961,4 C19.6468333,4 24.1597328,8.5127009 24.1597328,14.0793806 C24.1566391,16.002624 23.5997722,17.8841605 22.5555344,19.4992564 L26.3686098,23.3107578 C27.2110256,24.1558926 27.2103787,25.523278 26.3671754,26.3676254 C25.5237753,27.2107915 24.1564422,27.2107915 23.3130139,26.3676254 L19.4999385,22.5547178 C17.8849685,23.5992472 16.0031523,24.156202 14.0797961,24.1588456 C8.51289951,24.1588456 4,19.6461447 4,14.0793806 C4,8.5127009 8.51289951,4 14.0797961,4 Z M14.0797961,6.8813216 C11.5072963,6.88154659 9.13031859,8.2541067 7.84429368,10.4820104 C6.55824065,12.7099984 6.55857814,15.4546687 7.84505304,17.6823474 C9.13152795,19.9100261 11.5087025,21.2821362 14.0813429,21.2819112 C18.0581315,21.2814612 21.2815749,18.0575129 21.2812374,14.0808993 C21.2808156,10.1042013 18.0566972,6.88089975 14.0797961,6.8813216 Z M11.16,9.432 L11.16,18 L9.864,18 L9.864,9.432 L11.16,9.432 Z M15.984,9.432 C17.364,9.432 18.408,9.816 19.128,10.596 C19.8,11.316 20.136,12.36 20.136,13.716 C20.136,15.06 19.788,16.104 19.104,16.848 C18.384,17.616 17.34,18 15.96,18 L15.96,18 L12.864,18 L12.864,9.432 Z M15.744,10.548 L14.172,10.548 L14.172,16.884 L15.72,16.884 C16.8,16.884 17.604,16.62 18.108,16.104 C18.6,15.588 18.852,14.796 18.852,13.716 C18.852,12.612 18.6,11.82 18.12,11.316 C17.616,10.8 16.824,10.548 15.744,10.548 L15.744,10.548 Z" id="形状结合" fill="#5A6CE6"></path>
                </g>
            </g>
        </g>
    </g>
</svg>