<?xml version="1.0" encoding="UTF-8"?>
<svg width="32px" height="32px" viewBox="0 0 32 32" version="1.1" xmlns="http://www.w3.org/2000/svg" xmlns:xlink="http://www.w3.org/1999/xlink">
    <!-- Generator: Sketch 61.2 (89653) - https://sketch.com -->
    <title>编组 59</title>
    <desc>Created with Sketch.</desc>
    <g id="流程设计器" stroke="none" stroke-width="1" fill="none" fill-rule="evenodd">
        <g id="流程设计器补充内容" transform="translate(-1231.000000, -644.000000)">
            <g id="编组-65" transform="translate(1232.000000, 388.000000)">
                <g id="编组-59" transform="translate(0.000000, 257.000000)">
                    <rect id="矩形备份-23" stroke="#5A6CE6" fill="#EBEEFF" x="0" y="0" width="30" height="30"></rect>
                    <path d="M15.4893923,6.12196133 L22.9072652,9.4768232 C23.3953315,9.69759669 23.708895,10.1835083 23.708895,10.7191436 C23.708895,11.2546961 23.3953315,11.7407182 22.9072652,11.9613812 L15.4893923,15.3172099 C15.1324309,15.4785083 14.7233425,15.4785083 14.3663812,15.3172099 L6.94850829,11.959558 C6.46107735,11.7385635 6.14803867,11.2528729 6.14803867,10.7177624 C6.14803867,10.1825414 6.46107735,9.69685083 6.94850829,9.47593923 L14.3663812,6.12099448 C14.7233425,5.95966851 15.1324309,5.95966851 15.4893923,6.12099448 L15.4893923,6.12196133 Z M21.1601381,17.0729558 C20.6276243,17.6053867 20.6276243,18.4687569 21.1601381,19.0011602 C21.6925414,19.533674 22.5559116,19.533674 23.0883702,19.0011602 C23.6208564,18.4687569 23.6208564,17.6053867 23.0883702,17.0729558 C22.5559116,16.540442 21.6925414,16.540442 21.1601381,17.0729558 L21.1601381,17.0729558 Z M7.14273481,13.4135083 L14.3655249,16.6815746 C14.7237845,16.8419337 15.1329558,16.8419337 15.4893923,16.6815746 L18.978232,15.1032044 C18.2728453,16.0498895 17.7958011,17.1955525 17.6788122,18.3505801 L15.3422928,19.4075414 C14.9851381,19.5691713 14.5756354,19.5691713 14.2183425,19.4075414 L6.80055249,16.0517127 C6.31303867,15.8308287 6,15.3451381 6,14.8099171 C6,14.2748066 6.31303867,13.789116 6.80055249,13.5681215 L7.14273481,13.4135083 Z M24.0519337,16.1074033 C24.9312707,16.9866298 25.1045856,18.3492818 24.4734254,19.4207735 L25.9802486,20.9275138 L25.0166298,21.8920994 L23.5098066,20.3853867 C22.2889503,21.1064365 20.719116,20.7719337 19.8982597,19.6158011 C19.0774033,18.459558 19.2793094,16.8672928 20.3625967,15.9524586 C21.4459945,15.0375967 23.0495856,15.1053867 24.0519337,16.1083702 L24.0519337,16.1074033 Z M7.33331492,17.7291436 L14.4833702,20.9633425 C14.839779,21.124558 15.2499448,21.124558 15.6073204,20.9633425 L17.7759392,19.9827901 C18.0041713,20.9247238 18.5340884,21.6403591 19.2535083,22.0401657 L15.6073204,23.6902762 C15.2500552,23.8518232 14.8405249,23.8518232 14.4833702,23.6902762 L7.06450276,20.3325138 C6.57709945,20.1116298 6.26406077,19.6259392 6.26406077,19.0907182 C6.26406077,18.5556077 6.57709945,18.0699171 7.06450276,17.8489227 L7.33232044,17.7282873 L7.33331492,17.7291436 Z" id="Fill-1" fill="#5A6CE6"></path>
                </g>
            </g>
        </g>
    </g>
</svg>