<?xml version="1.0" encoding="UTF-8"?>
<svg width="32px" height="32px" viewBox="0 0 32 32" version="1.1" xmlns="http://www.w3.org/2000/svg" xmlns:xlink="http://www.w3.org/1999/xlink">
    <!-- Generator: Sketch 61.2 (89653) - https://sketch.com -->
    <title>编组 60</title>
    <desc>Created with Sketch.</desc>
    <g id="流程设计器" stroke="none" stroke-width="1" fill="none" fill-rule="evenodd">
        <g id="流程设计器补充内容" transform="translate(-1231.000000, -704.000000)">
            <g id="编组-65" transform="translate(1232.000000, 388.000000)">
                <g id="编组-60" transform="translate(0.000000, 317.000000)">
                    <rect id="矩形备份-24" stroke="#5A6CE6" fill="#EBEEFF" x="0" y="0" width="30" height="30"></rect>
                    <path d="M22.7571676,5.00578035 C23.5710694,5.00578035 24.237052,5.6716474 24.237052,6.48552023 L24.237052,6.48552023 L24.237052,12.7745954 C24.237052,13.3872832 23.7398266,13.8843642 23.1271387,13.8843642 C22.5144509,13.8843642 22.0173699,13.3872832 22.0173699,12.7745954 L22.0173699,12.7745954 L22.0173699,7.96526012 C22.0173699,7.5583815 21.684422,7.22546243 21.2774277,7.22546243 L21.2774277,7.22546243 L7.95947977,7.22546243 C7.55260116,7.22546243 7.21968208,7.5583815 7.21968208,7.96526012 L7.21968208,7.96526012 L7.21968208,22.762948 C7.21968208,23.1699422 7.55260116,23.5028902 7.95947977,23.5028902 L7.95947977,23.5028902 L12.0288728,23.5028902 C12.6415607,23.5028902 13.1387861,23.9999711 13.1387861,24.612659 C13.1387861,25.2254913 12.6415607,25.7225723 12.0288728,25.7225723 L12.0288728,25.7225723 L6.47973988,25.7225723 C5.66586705,25.7225723 5,25.0567052 5,24.2428324 L5,24.2428324 L5,6.48552023 C5,5.6716474 5.66586705,5.00578035 6.47973988,5.00578035 L6.47973988,5.00578035 Z M19.7976879,15.364104 C22.6578324,15.364104 24.9768497,17.6832659 24.9768497,20.5434104 C24.9768497,21.5722254 24.6763295,22.5294798 24.1583526,23.3363584 L24.1583526,23.3363584 L24.6509249,23.8289306 C25.0832081,24.2612139 25.0832081,24.9665029 24.6509249,25.3989017 C24.4358382,25.6138439 24.151474,25.7225723 23.8670809,25.7225723 C23.5826879,25.7225723 23.2982948,25.6138439 23.083237,25.3989017 L23.083237,25.3989017 L22.5907803,24.9063295 C21.7837861,25.4219075 20.8266474,25.7225723 19.7976879,25.7225723 C16.9375434,25.7225723 14.618526,23.4034393 14.618526,20.5434104 C14.618526,17.6832659 16.9375434,15.364104 19.7976879,15.364104 Z M19.7976879,17.5837861 C19.0069653,17.5837861 18.2647688,17.8913295 17.7052601,18.4508382 C17.1456069,19.0103757 16.8382081,19.7525434 16.8382081,20.5434104 C16.8382081,21.3341329 17.1456069,22.0763295 17.7052601,22.6358382 C18.2647688,23.1953468 19.0069653,23.5028902 19.7976879,23.5028902 C20.366474,23.5028902 20.9167341,23.3409827 21.3930347,23.0382081 L21.3930347,23.0382081 L21.9410405,22.686763 L22.2924855,22.1387572 C22.5954046,21.6624277 22.7571676,21.1121676 22.7571676,20.5434104 C22.7571676,19.7525434 22.4497688,19.0103757 21.8901156,18.4508382 C21.3306069,17.8913295 20.5884104,17.5837861 19.7976879,17.5837861 Z M13.5178902,13.8843642 C14.1283237,13.8843642 14.6277746,14.383815 14.6277746,14.9942775 C14.6277746,15.6045954 14.1283237,16.1040462 13.5178902,16.1040462 L9.81846821,16.1040462 C9.20815029,16.1040462 8.70867052,15.6045954 8.70867052,14.9942775 C8.70867052,14.383815 9.20815029,13.8843642 9.81846821,13.8843642 L13.5178902,13.8843642 Z M16.468237,9.44514451 C17.0786705,9.44514451 17.5780058,9.94447977 17.5780058,10.5549133 C17.5780058,11.1653468 17.0786705,11.6646821 16.468237,11.6646821 L9.80919075,11.6646821 C9.19887283,11.6646821 8.69942197,11.1653468 8.69942197,10.5549133 C8.69942197,9.94447977 9.19887283,9.44514451 9.80919075,9.44514451 L16.468237,9.44514451 Z" id="形状结合" fill="#5A6CE6"></path>
                </g>
            </g>
        </g>
    </g>
</svg>