<?xml version="1.0" encoding="UTF-8"?>
<svg width="32px" height="32px" viewBox="0 0 32 32" version="1.1" xmlns="http://www.w3.org/2000/svg" xmlns:xlink="http://www.w3.org/1999/xlink">
    <!-- Generator: Sketch 61.2 (89653) - https://sketch.com -->
    <title>编组 62</title>
    <desc>Created with Sketch.</desc>
    <g id="流程设计器" stroke="none" stroke-width="1" fill="none" fill-rule="evenodd">
        <g id="流程设计器补充内容" transform="translate(-1231.000000, -824.000000)">
            <g id="编组-65" transform="translate(1232.000000, 388.000000)">
                <g id="编组-62" transform="translate(0.000000, 437.000000)">
                    <rect id="矩形备份-26" stroke="#5A6CE6" fill="#EBEEFF" x="0" y="0" width="30" height="30"></rect>
                    <path d="M17.3392844,8.08382111 C20.3874061,8.08382111 22.8640787,10.5910841 22.8640787,13.6939821 C22.8640787,15.0792415 22.3658318,16.4090089 21.427907,17.4618891 L21.427907,17.4618891 L24.7252236,21.0772737 C24.8865116,21.2574526 24.9744186,21.4789553 24.9890877,21.6867907 C24.9890877,22.1716208 24.6079785,22.5595277 24.1537746,22.5595277 C23.9192487,22.5595277 23.6994275,22.4625331 23.5529517,22.2963077 L23.5529517,22.2963077 L20.0064401,18.5977388 C19.3030411,19.110297 18.5264043,19.3318712 17.3392844,19.3042504 C14.3058318,19.2487585 11.8291592,16.7968801 11.8291592,13.6939821 C11.8291592,10.5910841 14.2911628,8.08382111 17.3392844,8.08382111 Z M15.0531163,20.5591485 C15.5074633,20.5591485 15.9031342,20.9254097 15.9324723,21.4090233 C15.961703,21.9366082 15.5660322,22.3762862 15.0824544,22.3762862 L15.0824544,22.3762862 L5.85000358,22.3762862 C5.38098748,22.3762862 5.00002147,21.9659106 5.00002147,21.4676995 C5.00002147,20.9694884 5.38098748,20.5591485 5.85000358,20.5591485 L5.85000358,20.5591485 Z M10.7299463,16.3677567 C11.1843292,16.3677567 11.5799642,16.7342326 11.6093023,17.2177746 C11.6385331,17.7453596 11.2428623,18.1850376 10.7593202,18.1850376 L10.7593202,18.1850376 L5.85001789,18.1850376 C5.38096601,18.1850376 5,17.7747335 5,17.2764866 C5,16.7780966 5.38096601,16.3677567 5.85001789,16.3677567 L5.85001789,16.3677567 Z M17.3392844,10.2309767 C15.3608587,10.2309767 13.763542,11.7824258 13.763542,13.7078283 C13.763542,15.6195635 15.3608587,17.1847513 17.3392844,17.1847513 C19.3177102,17.1847513 20.9296959,15.6195635 20.9149911,13.7078283 C20.9149911,11.7963077 19.3177102,10.2309767 17.3392844,10.2309767 Z M8.97137746,12.1912343 C9.42572451,12.1912343 9.82139535,12.5575313 9.85073345,13.0412522 C9.88007156,13.5688372 9.48429338,14.0083721 9.00071556,14.0083721 L9.00071556,14.0083721 L5.85001789,14.0083721 C5.38096601,14.0083721 5,13.5980322 5,13.0997853 C5,12.6015742 5.38096601,12.1912343 5.85001789,12.1912343 L5.85001789,12.1912343 Z M10.1438283,8 C10.5981753,8 10.9938104,8.36633274 11.0230411,8.84987478 C11.0523792,9.37745975 10.6567084,9.81713775 10.1731664,9.81713775 L10.1731664,9.81713775 L5.85001789,9.81713775 C5.38096601,9.81713775 5,9.40683363 5,8.90858676 C5,8.41033989 5.38096601,8 5.85001789,8 L5.85001789,8 Z" id="形状结合" fill="#5A6CE6"></path>
                </g>
            </g>
        </g>
    </g>
</svg>