<?xml version="1.0" encoding="UTF-8"?>
<svg width="32px" height="32px" viewBox="0 0 32 32" version="1.1" xmlns="http://www.w3.org/2000/svg" xmlns:xlink="http://www.w3.org/1999/xlink">
    <!-- Generator: Sketch 61.2 (89653) - https://sketch.com -->
    <title>编组 52</title>
    <desc>Created with Sketch.</desc>
    <g id="流程设计器" stroke="none" stroke-width="1" fill="none" fill-rule="evenodd">
        <g id="流程设计器补充内容" transform="translate(-1231.000000, -404.000000)">
            <g id="编组-65" transform="translate(1232.000000, 388.000000)">
                <g id="编组-52" transform="translate(0.000000, 17.000000)">
                    <rect id="矩形" stroke="#5A6CE6" fill="#EBEEFF" x="0" y="0" width="30" height="30"></rect>
                    <path d="M21.5613889,15.5344444 C21.5613889,16.0613889 21.1302778,16.4925 20.6030556,16.4925 L17.4505556,16.4925 C16.9238889,16.4925 16.4927778,16.9236111 16.4925,17.4508333 L16.4925,20.6033333 C16.4925,21.1302778 16.0613889,21.5613889 15.5344444,21.5611111 L14.4661111,21.5613889 C13.9388889,21.5611111 13.5077778,21.1302778 13.5077778,20.6033333 L13.5077778,17.4508333 C13.5075,16.9236111 13.0766667,16.4925 12.5497222,16.4922222 L9.39694444,16.4925 C8.87027778,16.4925 8.43916667,16.0613889 8.43888889,15.5344444 L8.43916667,14.4658333 C8.43888889,13.9391667 8.87027778,13.5080556 9.39694444,13.5077778 L12.5497222,13.5080556 C13.0766667,13.5080556 13.5075,13.0766667 13.5077778,12.5497222 L13.5077778,9.39666667 C13.5077778,8.87 13.9388889,8.43888889 14.4658333,8.43888889 L15.5347222,8.43888889 C16.0616667,8.43888889 16.4927778,8.87 16.4927778,9.39666667 L16.4925,12.5494444 C16.4927778,13.0763889 16.9238889,13.5077778 17.4505556,13.5080556 L20.6033333,13.5077778 C21.1302778,13.5080556 21.5613889,13.9388889 21.5613889,14.4658333 L21.5613889,15.5344444 Z M21.4,5 L8.6,5 C6.62,5 5,6.62 5,8.60027778 L5,21.4002778 C5,23.38 6.62,25 8.6,25 L21.4,25 C23.38,25 25,23.38 25,21.4002778 L25,8.60027778 C25,6.62 23.38,5 21.4,5 L21.4,5 Z" id="Fill-1" fill="#5A6CE6"></path>
                </g>
            </g>
        </g>
    </g>
</svg>