<?xml version="1.0" encoding="UTF-8"?>
<svg width="32px" height="32px" viewBox="0 0 32 32" version="1.1" xmlns="http://www.w3.org/2000/svg" xmlns:xlink="http://www.w3.org/1999/xlink">
    <!-- Generator: Sketch 61.2 (89653) - https://sketch.com -->
    <title>编组 51</title>
    <desc>Created with Sketch.</desc>
    <g id="流程设计器" stroke="none" stroke-width="1" fill="none" fill-rule="evenodd">
        <g id="流程设计器补充内容" transform="translate(-1231.000000, -464.000000)">
            <g id="编组-65" transform="translate(1232.000000, 388.000000)">
                <g id="编组-51" transform="translate(0.000000, 77.000000)">
                    <g id="编组-64">
                        <rect id="矩形备份-20" stroke="#5A6CE6" fill="#EBEEFF" x="0" y="0" width="30" height="30"></rect>
                        <path d="M20.6523463,6 C20.8496374,6 21.0423866,6.01987105 21.2288907,6.05734218 L21.2288907,6.05734218 L19.0879267,8.19859001 L8.93154797,8.19859001 C8.52759786,8.19859001 8.19887388,8.52703012 8.19887388,8.93126409 L8.19887388,8.93126409 L8.19887388,20.6654044 C8.19887388,21.0696384 8.52759786,21.3983623 8.93154797,21.3983623 L8.93154797,21.3983623 L20.6523463,21.3983623 C21.0560125,21.3983623 21.3850203,21.0696384 21.3850203,20.6654044 L21.3850203,20.6654044 L21.3850203,16.3565086 L23.5841781,14.1579186 L23.5841781,20.6654044 C23.5841781,22.2848951 22.2715532,23.5972362 20.6523463,23.5972362 L20.6523463,23.5972362 L8.93154797,23.5972362 C7.31262494,23.5972362 6,22.2848951 6,20.6654044 L6,20.6654044 L6,8.93126409 C6,7.31234107 7.31262494,6 8.93154797,6 L8.93154797,6 Z M22.9271194,6.79719307 L26,9.87048519 L17.7531026,18.1174628 L17.7514343,18.118575 L13.1999455,19.5972476 L14.6791099,15.045839 L14.6788318,15.045839 L14.6791099,15.0447268 L14.6791099,15.0438927 L14.6805001,15.0438927 L22.9271194,6.79719307 Z M15.2977453,15.4248219 L14.2993094,18.498114 L17.372746,17.5001907 L15.2977453,15.4248219 Z" id="形状结合" fill="#5A6CE6"></path>
                    </g>
                </g>
            </g>
        </g>
    </g>
</svg>