<?xml version="1.0" encoding="UTF-8"?>
<svg width="32px" height="32px" viewBox="0 0 32 32" version="1.1" xmlns="http://www.w3.org/2000/svg" xmlns:xlink="http://www.w3.org/1999/xlink">
    <!-- Generator: Sketch 61.2 (89653) - https://sketch.com -->
    <title>编组 6</title>
    <desc>Created with Sketch.</desc>
    <g id="流程设计器" stroke="none" stroke-width="1" fill="none" fill-rule="evenodd">
        <g id="流程设计器补充内容" transform="translate(-47.000000, -328.000000)">
            <g id="编组-23" transform="translate(36.000000, 17.000000)">
                <g id="编组-22">
                    <g id="编组-6" transform="translate(12.000000, 312.000000)">
                        <rect id="矩形备份-3" stroke="#3A84FF" fill="#E2EDFF" x="0" y="0" width="30" height="30" rx="8"></rect>
                        <path d="M6.36363636,20.9090909 C5.86151515,20.9090909 5.45454545,20.5121477 5.45454545,20.0227273 L5.45454545,19.4318182 L5.45454545,16.4772727 L5.45454545,15.8863636 L5.45454545,14.1136364 L5.45454545,13.5227273 L5.45454545,10.5681818 L5.45454545,9.97727273 C5.45454545,9.48770455 5.86151515,9.09090909 6.36363636,9.09090909 C6.86560606,9.09090909 7.27272727,9.48770455 7.27272727,9.97727273 L7.27272727,10.5681818 L7.27272727,13.5227273 L7.27272727,14.1136364 L7.27272727,15.8863636 L7.27272727,16.4772727 L7.27272727,19.4318182 L7.27272727,20.0227273 C7.27272727,20.5121477 6.86560606,20.9090909 6.36363636,20.9090909 L6.36363636,20.9090909 Z M9.09090909,19.0909091 C8.58878788,19.0909091 8.18181818,18.6983279 8.18181818,18.2142857 L8.18181818,17.6298701 L8.18181818,12.3701299 L8.18181818,11.7857143 C8.18181818,11.301526 8.58878788,10.9090909 9.09090909,10.9090909 C9.59287879,10.9090909 10,11.301526 10,11.7857143 L10,12.3701299 L10,17.6298701 L10,18.2142857 C10,18.6983279 9.59287879,19.0909091 9.09090909,19.0909091 L9.09090909,19.0909091 Z M12.7272727,17.2727273 L17.2727273,17.2727273 L17.2727273,12.7272727 L12.7272727,12.7272727 L12.7272727,17.2727273 Z M18.2142857,19.0909091 L11.7857143,19.0909091 C11.301526,19.0909091 10.9090909,18.6983279 10.9090909,18.2142857 L10.9090909,11.7857143 C10.9090909,11.301526 11.301526,10.9090909 11.7857143,10.9090909 L18.2142857,10.9090909 C18.6983279,10.9090909 19.0909091,11.301526 19.0909091,11.7857143 L19.0909091,18.2142857 C19.0909091,18.6983279 18.6983279,19.0909091 18.2142857,19.0909091 L18.2142857,19.0909091 Z M20.9090909,19.0909091 C20.4069697,19.0909091 20,18.6983279 20,18.2142857 L20,17.6298701 L20,12.3701299 L20,11.7857143 C20,11.301526 20.4069697,10.9090909 20.9090909,10.9090909 C21.4110606,10.9090909 21.8181818,11.301526 21.8181818,11.7857143 L21.8181818,12.3701299 L21.8181818,17.6298701 L21.8181818,18.2142857 C21.8181818,18.6983279 21.4110606,19.0909091 20.9090909,19.0909091 L20.9090909,19.0909091 Z M23.6363636,20.9090909 C23.1342424,20.9090909 22.7272727,20.5121477 22.7272727,20.0227273 L22.7272727,19.4318182 L22.7272727,16.4772727 L22.7272727,15.8863636 L22.7272727,14.1136364 L22.7272727,13.5227273 L22.7272727,10.5681818 L22.7272727,9.97727273 C22.7272727,9.48770455 23.1342424,9.09090909 23.6363636,9.09090909 C24.1383333,9.09090909 24.5454545,9.48770455 24.5454545,9.97727273 L24.5454545,10.5681818 L24.5454545,13.5227273 L24.5454545,14.1136364 L24.5454545,15.8863636 L24.5454545,16.4772727 L24.5454545,19.4318182 L24.5454545,20.0227273 C24.5454545,20.5121477 24.1383333,20.9090909 23.6363636,20.9090909 L23.6363636,20.9090909 Z" id="Fill-1" fill="#3A84FF"></path>
                    </g>
                </g>
            </g>
        </g>
    </g>
</svg>