<?xml version="1.0" encoding="UTF-8"?>
<svg width="32px" height="32px" viewBox="0 0 32 32" version="1.1" xmlns="http://www.w3.org/2000/svg" xmlns:xlink="http://www.w3.org/1999/xlink">
    <!-- Generator: Sketch 61.2 (89653) - https://sketch.com -->
    <title>编组 45</title>
    <desc>Created with Sketch.</desc>
    <g id="流程设计器" stroke="none" stroke-width="1" fill="none" fill-rule="evenodd">
        <g id="流程设计器补充内容" transform="translate(-1231.000000, -286.000000)">
            <g id="编组-47" transform="translate(1232.000000, 88.000000)">
                <g id="编组-46">
                    <g id="编组-45" transform="translate(0.000000, 199.000000)">
                        <g id="编组-42">
                            <circle id="椭圆形备份-6" stroke="#37CFC9" fill="#EBFFFE" cx="15" cy="15" r="15"></circle>
                            <path d="M6.69423729,11.777926 L10.3952542,15.312626 L8.07084746,15.312626 C8.09322034,19.061501 11.280339,22.104476 15.1955932,22.104476 C17.5810169,22.104476 19.6945763,20.974126 20.9884746,19.244151 L20.9884746,19.244151 L22.1437288,20.347201 L22.9508475,21.118101 C21.1437288,23.318026 18.3430508,24.732426 15.1955932,24.732426 C9.76033898,24.732426 5.35254237,20.518476 5.32983051,15.312626 L5.32983051,15.312626 L3,15.312626 L6.69423729,11.777926 Z M14.9923311,5 C20.3509977,5 24.6953311,9.44995122 24.6953311,14.9393171 C24.6953311,14.9574146 24.6939977,14.9748293 24.6939977,14.9929268 L24.6939977,14.9929268 L24.6939977,14.9936098 L25.4796644,14.9936098 L25.4806644,14.9929268 L26.9789977,14.9929268 L23.3463311,18.7066829 L19.7069977,14.9929268 L21.1439977,14.9929268 L21.1446644,14.9936098 L21.9986644,14.9936098 C21.9986644,14.9748293 22.0003311,14.9574146 22.0003311,14.9393171 C22.0003311,10.9810732 18.8566644,7.76107317 14.9923311,7.76107317 C12.6216644,7.76107317 10.5236644,8.97463415 9.25466441,10.8263902 L9.25466441,10.8263902 L8.14999774,9.69887805 L7.32333107,8.85478049 C9.09799774,6.51063415 11.8726644,5 14.9923311,5 Z" id="形状结合" fill="#37CFC9"></path>
                        </g>
                    </g>
                </g>
            </g>
        </g>
    </g>
</svg>