<?xml version="1.0" encoding="UTF-8"?>
<svg width="32px" height="32px" viewBox="0 0 32 32" version="1.1" xmlns="http://www.w3.org/2000/svg" xmlns:xlink="http://www.w3.org/1999/xlink">
    <!-- Generator: Sketch 61.2 (89653) - https://sketch.com -->
    <title>编组 26</title>
    <desc>Created with Sketch.</desc>
    <g id="流程设计器" stroke="none" stroke-width="1" fill="none" fill-rule="evenodd">
        <g transform="translate(-11.000000, -750.000000)" id="编组-25备份-2">
            <g transform="translate(0.000000, 40.000000)">
                <g id="编组-26" transform="translate(12.000000, 711.000000)">
                    <rect id="矩形备份-8" stroke="#48BC99" fill="#E4FFF7" x="0" y="0" width="30" height="30"></rect>
                    <path d="M15,17.8636364 L17.5423438,15.3558864 L24.7051563,21.7373409 C24.5373438,21.8991364 24.3120313,22 24.0625,22 L5.9375,22 C5.68796875,22 5.46265625,21.8991364 5.29484375,21.7373409 L12.4576562,15.3558864 L15,17.8636364 Z M5.2528125,21.6935909 C5.0971875,21.5230455 5,21.2965 5,21.0454545 L5,8.95454545 C5,8.68870455 5.1071875,8.44863636 5.279375,8.27554545 L11.3679687,14.2810682 L5.2528125,21.6935909 Z M5.31203125,8.24818182 C5.478125,8.09545455 5.69609375,8 5.9375,8 L24.0625,8 C24.3039063,8 24.521875,8.09545455 24.6879687,8.24818182 L15,15.9545455 L5.31203125,8.24818182 Z M18.6320312,14.2810682 L24.720625,8.27554545 C24.8928125,8.44863636 25,8.68870455 25,8.95454545 L25,21.0454545 C25,21.2965 24.9028125,21.5230455 24.7471875,21.6935909 L18.6320312,14.2810682 Z" id="Fill-1" fill="#48BC99"></path>
                </g>
            </g>
        </g>
    </g>
</svg>