<?xml version="1.0" encoding="UTF-8"?>
<svg width="32px" height="32px" viewBox="0 0 32 32" version="1.1" xmlns="http://www.w3.org/2000/svg" xmlns:xlink="http://www.w3.org/1999/xlink">

<title>start_1</title>
    <desc>Created with Sketch.</desc>
    <g id="流程设计器" stroke="none" stroke-width="1" fill="none" fill-rule="evenodd">
        <g transform="translate(-11.000000, -268.000000)" id="编组-25备份-2">
            <g transform="translate(0.000000, 40.000000)">
                <g id="编组-5" transform="translate(12.000000, 90.000000)">
                    <g id="编组-13" transform="translate(0.000000, 139.000000)">
                        <circle id="椭圆形备份-2" stroke="#37CFC9" fill="#EBFFFE" cx="15" cy="15" r="15"></circle>
                        <path d="M21,13 C19.8955,13 19,13.8955 19,15 C19,16.1045 19.8955,17 21,17 C22.1045,17 23,16.1045 23,15 C23,13.8955 22.1045,13 21,13 M16,13 C14.8955,13 14,13.8955 14,15 C14,16.1045 14.8955,17 16,17 C17.1046667,17 18,16.1045 18,15 C18,13.8955 17.1046667,13 16,13 M10,13 C8.8955,13 8,13.8955 8,15 C8,16.1045 8.8955,17 10,17 C11.1046667,17 12,16.1045 12,15 C12,13.8955 11.1046667,13 10,13 M16.0624941,22.3032281 C15.3101521,22.3032281 14.5751881,22.0821809 13.864488,21.9786483 C10.9898823,25.6678724 6.45697624,24.9421452 6.45697624,24.9421452 C9.65865159,23.4034704 9.59389345,20.8551027 9.02467758,20.5155423 C6.51124192,19.0163165 5,16.7334384 5,14.1762488 C5,9.66076098 9.88817412,6 16.0624941,6 C22.2366502,6 26,9.66076098 26,14.1762488 C26,18.6919031 22.2366502,22.3032281 16.0624941,22.3032281" id="Fill-1" fill="#37CFC9"></path>
                    </g>
                </g>
            </g>
        </g>
    </g>
</svg>