<?xml version="1.0" encoding="UTF-8"?>
<svg width="40px" height="31px" viewBox="0 0 40 31" version="1.1" xmlns="http://www.w3.org/2000/svg" xmlns:xlink="http://www.w3.org/1999/xlink">
    <!-- Generator: Sketch 61.2 (89653) - https://sketch.com -->
    <title>编组 20</title>
    <desc>Created with Sketch.</desc>
    <g id="流程设计器" stroke="none" stroke-width="1" fill="none" fill-rule="evenodd">
        <g id="流程设计器补充内容" transform="translate(-47.000000, -501.000000)">
            <g id="编组-23" transform="translate(36.000000, 17.000000)">
                <g id="编组-22">
                    <g id="编组-20" transform="translate(12.000000, 484.000000)">
                        <polygon id="三角形备份" stroke="#F5A623" fill="#FFEED1" points="19 0 38 30 0 30"></polygon>
                        <path d="M23.4166667,18 C22.5882917,18 21.9166667,18.671625 21.9166667,19.5 C21.9166667,20.328375 22.5882917,21 23.4166667,21 C24.2450417,21 24.9166667,20.328375 24.9166667,19.5 C24.9166667,18.671625 24.2450417,18 23.4166667,18 M19.4166667,18 C18.5882917,18 17.9166667,18.671625 17.9166667,19.5 C17.9166667,20.328375 18.5882917,21 19.4166667,21 C20.2451667,21 20.9166667,20.328375 20.9166667,19.5 C20.9166667,18.671625 20.2451667,18 19.4166667,18 M15.4166667,18 C14.5882917,18 13.9166667,18.671625 13.9166667,19.5 C13.9166667,20.328375 14.5882917,21 15.4166667,21 C16.2451667,21 16.9166667,20.328375 16.9166667,19.5 C16.9166667,18.671625 16.2451667,18 15.4166667,18 M19.8720191,24.8709695 C19.2629803,24.8709695 18.6680095,24.6964586 18.0926808,24.6147223 C15.765619,27.5272677 12.0961236,26.9543252 12.0961236,26.9543252 C14.6879561,25.7395819 14.6355328,23.7277127 14.174739,23.4596387 C12.140053,22.2760393 10.9166667,20.4737672 10.9166667,18.4549333 C10.9166667,14.8900745 14.87376,12 19.8720191,12 C24.8701454,12 27.9166667,14.8900745 27.9166667,18.4549333 C27.9166667,22.0199235 24.8701454,24.8709695 19.8720191,24.8709695" id="Fill-1" fill="#F5A623"></path>
                    </g>
                </g>
            </g>
        </g>
    </g>
</svg>