<?xml version="1.0" encoding="UTF-8"?>
<svg width="32px" height="32px" viewBox="0 0 32 32" version="1.1" xmlns="http://www.w3.org/2000/svg" xmlns:xlink="http://www.w3.org/1999/xlink">
    <!-- Generator: Sketch 61.2 (89653) - https://sketch.com -->
    <title>编组 9</title>
    <desc>Created with Sketch.</desc>
    <g id="流程设计器" stroke="none" stroke-width="1" fill="none" fill-rule="evenodd">
        <g id="流程设计器补充内容" transform="translate(-47.000000, -265.000000)">
            <g id="编组-23" transform="translate(36.000000, 17.000000)">
                <g id="编组-22">
                    <g id="编组-9" transform="translate(12.000000, 249.000000)">
                        <g id="编组-12">
                            <rect id="矩形备份-4" stroke="#3A84FF" fill="#E2EDFF" x="0" y="0" width="30" height="30" rx="8"></rect>
                            <path d="M25,13 L25,19.3021744 C25,21.3452888 23.9373629,22.3853636 21.8490774,22.3853636 L21.8490774,22.3853636 L9.23793207,22.3853636 L9.23793207,25 L5,20.8439093 L9.23793207,16.6805237 L9.23793207,19.6105214 L21.2191223,19.6105214 C21.7401184,19.6105214 22.1641984,19.1955576 22.1641984,18.6854805 L22.1641984,18.6854805 L22.1641984,15.786065 L22.7614658,15.1991115 L25,13 Z M21.7631613,5 L26,9.15407269 L21.7631613,13.3162791 L21.7631613,10.3920767 L9.78018891,10.3920767 C9.25932721,10.3920767 8.83535668,10.8071754 8.83535668,11.3165128 L8.83535668,11.3165128 L8.83535668,14.2149118 L8.24311657,14.7968914 L6,17 L6,10.700596 C6,8.65791749 7.06207628,7.61820732 9.15039631,7.61820732 L9.15039631,7.61820732 L21.7631613,7.61820732 L21.7631613,5 Z" id="形状结合" fill="#3A84FF"></path>
                        </g>
                    </g>
                </g>
            </g>
        </g>
    </g>
</svg>