<?xml version="1.0" encoding="UTF-8"?>
<svg width="32px" height="32px" viewBox="0 0 32 32" version="1.1" xmlns="http://www.w3.org/2000/svg" xmlns:xlink="http://www.w3.org/1999/xlink">

<title>task_1</title>
    <desc>Created with Sketch.</desc>
    <g id="流程设计器" stroke="none" stroke-width="1" fill="none" fill-rule="evenodd">
        <g transform="translate(-11.000000, -449.000000)" id="编组-25备份-2">
            <g transform="translate(0.000000, 40.000000)">
                <g id="编组-2" transform="translate(12.000000, 410.000000)">
                    <rect id="矩形备份-2" stroke="#999999" fill="#F4F6F9" x="0" y="0" width="30" height="30"></rect>
                    <path d="M24,16 C25.1045695,16 26,16.8954305 26,18 L26,25 C26,26.1045695 25.1045695,27 24,27 L7,27 C5.8954305,27 5,26.1045695 5,25 L5,18 C5,16.8954305 5.8954305,16 7,16 L24,16 Z M23,18 L12,18 L12,25 L23,25 C23.5128358,25 23.9355072,24.6139598 23.9932723,24.1166211 L24,24 L24,19 C24,18.4477153 23.5522847,18 23,18 Z M24,4 C25.1045695,4 26,4.8954305 26,6 L26,13 C26,14.1045695 25.1045695,15 24,15 L7,15 C5.8954305,15 5,14.1045695 5,13 L5,6 C5,4.8954305 5.8954305,4 7,4 L24,4 Z M23,6 L12,6 L12,13 L23,13 C23.5128358,13 23.9355072,12.6139598 23.9932723,12.1166211 L24,12 L24,7 C24,6.44771525 23.5522847,6 23,6 Z" id="形状结合" fill="#666666"></path>
                </g>
            </g>
        </g>
    </g>
</svg>