<?xml version="1.0" encoding="UTF-8"?>
<svg width="32px" height="32px" viewBox="0 0 32 32" version="1.1" xmlns="http://www.w3.org/2000/svg" xmlns:xlink="http://www.w3.org/1999/xlink">
    <!-- Generator: Sketch 61.2 (89653) - https://sketch.com -->
    <title>编组 25</title>
    <desc>Created with Sketch.</desc>
    <g id="流程设计器" stroke="none" stroke-width="1" fill="none" fill-rule="evenodd">
        <g transform="translate(-11.000000, -689.000000)" id="编组-25备份-2">
            <g transform="translate(0.000000, 40.000000)">
                <g id="编组-25" transform="translate(12.000000, 650.000000)">
                    <rect id="矩形备份-7" stroke="#1298AD" fill="#F1FDFF" x="0" y="0" width="30" height="30"></rect>
                    <path d="M10.9495833,9 L10.9495833,9.00571147 L9.06770833,10.9122832 L9.06770833,14.1599915 L8,14.1599915 L8,21 L23,21 L23,14.1599915 L21.7841667,14.1599915 L21.7841667,10.4807502 L19.7166667,10.4807502 L17.6497917,10.4807502 L17.1516667,10.4807502 L15.5822917,10.4807502 L15.5822917,9 L10.9495833,9 Z M10,11.7384364 L11.8756229,11.7384364 L11.8756229,10 L15,10 L15,14 L10,14 L10,11.7384364 Z M20,14 L21,14 L21,11 L20,11 L20,14 Z M18,11 L18.1899494,11 L19,11 L19,14 L18,14 L18,11 Z M16,11 L16.1900474,11 L17,11 L17,14 L16,14 L16,11 Z" id="Fill-1" fill="#1298AD"></path>
                </g>
            </g>
        </g>
    </g>
</svg>