<?xml version="1.0" encoding="UTF-8"?>
<svg width="32px" height="32px" viewBox="0 0 32 32" version="1.1" xmlns="http://www.w3.org/2000/svg" xmlns:xlink="http://www.w3.org/1999/xlink">
    <!-- Generator: Sketch 61.2 (89653) - https://sketch.com -->
    <title>编组 55</title>
    <desc>Created with Sketch.</desc>
    <g id="流程设计器" stroke="none" stroke-width="1" fill="none" fill-rule="evenodd">
        <g id="流程设计器补充内容" transform="translate(-1480.000000, -171.000000)">
            <g id="编组-56" transform="translate(1468.000000, 45.000000)">
                <g id="编组-55" transform="translate(13.000000, 127.000000)">
                    <g id="编组-9备份-2" fill="#E2EDFF" stroke="#3A84FF">
                        <g id="编组-12">
                            <rect id="矩形备份-4" x="0" y="0" width="30" height="30" rx="8"></rect>
                        </g>
                    </g>
                    <path d="M22,9.45943672 L22,6.73894589 L19.2510958,6.73894589 L19.2510958,9.46648486 L19.8844846,9.46648486 C19.8530805,10.485028 19.7451669,11.1898412 19.5295572,11.7113589 C19.2616218,12.3422108 18.8579353,12.7968153 17.9983672,13.3748062 C17.4033418,13.7518372 16.857119,14.1993936 16.366397,14.7068591 L16.366397,5.87911785 L17.3477974,5.87911785 L15.6426234,3 L13.9272278,5.87911785 L14.9084108,5.87911785 L14.9084108,17.6353579 C14.4213425,17.1349846 13.882079,16.6979123 13.293839,16.3243172 C12.4344448,15.7428904 12.0273657,15.2918981 11.762823,14.6610903 C11.5227685,14.0830553 11.4184216,13.2689961 11.4009362,12.0603296 C11.9716038,11.7960246 12.3369268,11.2180337 12.3404499,10.58379 C12.3404499,9.64978034 11.5924056,8.89210615 10.6702902,8.89210615 C9.74808785,8.89210615 9,9.64978034 9,10.58379 C9,11.2214697 9.36884615,11.8030727 9.94294997,12.0708577 C9.96047886,13.3500496 10.0613461,14.329828 10.4093142,15.2001842 C10.7919921,16.1517261 11.4914514,16.8706796 12.476201,17.5190197 C13.3634761,18.1111508 13.9514986,18.6220523 14.3307838,19.2705685 C14.6126814,19.7673737 14.7866655,20.3207402 14.8527359,20.8880708 C13.4853519,21.2687139 12.6815022,22.7029207 13.0573077,24.0879667 C13.4331132,25.4729687 14.845907,26.2868517 16.2169012,25.9064288 C17.3581495,25.5891307 18.1376849,24.5248188 18.1028446,23.3266804 C18.0923186,22.2341759 17.3929898,21.2721499 16.3700072,20.9374517 L16.3700072,19.0415483 C16.3873186,17.7551321 16.6031023,16.9375928 16.9683817,16.3138331 C17.3477974,15.6654491 17.9322533,15.1544154 18.823095,14.5622843 C19.804452,13.9139002 20.5038243,13.1986029 20.8865892,12.243581 C21.2067198,11.4577583 21.3179826,10.5801778 21.3458635,9.46648486 L22,9.46648486 L22,9.45943672 Z" id="Fill-1" fill="#3A84FF"></path>
                </g>
            </g>
        </g>
    </g>
</svg>