<?xml version="1.0" encoding="UTF-8"?>
<svg width="32px" height="32px" viewBox="0 0 32 32" version="1.1" xmlns="http://www.w3.org/2000/svg" xmlns:xlink="http://www.w3.org/1999/xlink">
    <!-- Generator: Sketch 61.2 (89653) - https://sketch.com -->
    <title>编组 54</title>
    <desc>Created with Sketch.</desc>
    <g id="流程设计器" stroke="none" stroke-width="1" fill="none" fill-rule="evenodd">
        <g id="流程设计器补充内容" transform="translate(-1480.000000, -108.000000)">
            <g id="编组-56" transform="translate(1468.000000, 45.000000)">
                <g id="编组-54" transform="translate(13.000000, 64.000000)">
                    <g id="编组-50" fill="#E2EDFF" stroke="#3A84FF">
                        <g id="编组-11">
                            <rect id="矩形" x="0" y="0" width="30" height="30" rx="8"></rect>
                        </g>
                    </g>
                    <path d="M13.9941756,17.025688 L13.9941756,19.0196555 C13.9941756,20.3147205 13.1559024,21.4134802 11.9968488,21.8319218 L11.9968488,21.8319218 L11.9968488,26.0000029 L9.99960976,26.0000029 L9.99960976,21.8319218 C8.8405561,21.4134802 8.00228293,20.3171166 8.00228293,19.0196555 L8.00228293,19.0196555 L8,19.0196555 L8,17.025688 L13.9941756,17.025688 Z M21.9977229,17.025688 L21.9977229,19.0196555 C21.9977229,20.3264964 21.1594498,21.4228308 20.0003668,21.8319218 L20.0003668,21.8319218 L20.0003668,26.0000029 L18.0031571,26.0000029 L18.0031571,21.8319218 C16.8441034,21.4134802 16.0058302,20.3171166 16.0058302,19.0196555 L16.0058302,19.0196555 L16.0058302,17.025688 L21.9977229,17.025688 Z M11.0000469,4 C11.5508547,4 12.0008525,4.4499068 12.0008525,5.00063911 L12.0008525,5.00063911 L12.0008525,9.00082286 L14.0000029,9.00082286 L14.0000029,15 L8.00000293,15 L8.00000293,9.00082286 L9.99927051,9.00082286 L9.99927051,5.00063911 C9.99927051,4.4499068 10.4492683,4 11.0000469,4 Z M18.9976592,4 C19.5484697,4 19.9984404,4.4499068 19.9984404,5.00063911 L19.9984404,5.00063911 L20.0008428,5.00063911 L20.0008428,9.00082286 L22.0000029,9.00082286 L22.0000029,15 L16.0000029,15 L16.0000029,9.00082286 L17.9968779,9.00082286 L17.9968779,5.00063911 C17.9968779,4.4499068 18.4468779,4 18.9976592,4 Z" id="形状结合" fill="#3A84FF"></path>
                </g>
            </g>
        </g>
    </g>
</svg>