<?xml version="1.0" encoding="UTF-8"?>
<svg width="32px" height="32px" viewBox="0 0 32 32" version="1.1" xmlns="http://www.w3.org/2000/svg" xmlns:xlink="http://www.w3.org/1999/xlink">
    <!-- Generator: Sketch 61.2 (89653) - https://sketch.com -->
    <title>编组 32</title>
    <desc>Created with Sketch.</desc>
    <g id="流程设计器" stroke="none" stroke-width="1" fill="none" fill-rule="evenodd">
        <g id="流程设计器补充内容" transform="translate(-1482.000000, -297.000000)">
            <g id="编组-49" transform="translate(1467.000000, 234.000000)">
                <g id="编组-32" transform="translate(16.000000, 64.000000)">
                    <g id="编组-55备份" fill="#FFEAC8" stroke="#F5A623">
                        <g id="编组-9备份-2">
                            <g id="编组-12">
                                <rect id="矩形备份-4" x="0" y="0" width="30" height="30" rx="8"></rect>
                            </g>
                        </g>
                    </g>
                    <path d="M7.366,21 L7.366,15.312 L13.648,15.312 L13.648,13.512 L7.366,13.512 L7.366,9.948 L14.026,9.948 L14.026,8.148 L5.26,8.148 L5.26,21 L7.366,21 Z M17.608,21 L17.608,15.402 C17.68,14.664 17.932,14.088 18.364,13.692 C18.742,13.332 19.192,13.152 19.696,13.152 C21.1,13.152 21.802,13.908 21.802,15.438 L21.802,21 L23.854,21 L23.854,15.258 C23.854,12.702 22.684,11.442 20.362,11.442 C19.804,11.442 19.3,11.55 18.832,11.784 C18.382,12 17.968,12.342 17.608,12.774 L17.608,11.694 L15.556,11.694 L15.556,21 L17.608,21 Z" id="Fn" fill="#F5A623" fill-rule="nonzero"></path>
                </g>
            </g>
        </g>
    </g>
</svg>