<?xml version="1.0" encoding="UTF-8"?>
<svg width="32px" height="32px" viewBox="0 0 32 32" version="1.1" xmlns="http://www.w3.org/2000/svg" xmlns:xlink="http://www.w3.org/1999/xlink">
    <!-- Generator: Sketch 61.2 (89653) - https://sketch.com -->
    <title>编组 48</title>
    <desc>Created with Sketch.</desc>
    <g id="流程设计器" stroke="none" stroke-width="1" fill="none" fill-rule="evenodd">
        <g id="流程设计器补充内容" transform="translate(-1482.000000, -417.000000)">
            <g id="编组-49" transform="translate(1467.000000, 234.000000)">
                <g id="编组-48" transform="translate(16.000000, 184.000000)">
                    <g id="编组-55备份-3" fill="#FFEAC8" stroke="#F5A623">
                        <g id="编组-9备份-2">
                            <g id="编组-12">
                                <rect id="矩形备份-4" x="0" y="0" width="30" height="30" rx="8"></rect>
                            </g>
                        </g>
                    </g>
                    <path d="M5.776,20 C6.688,20 7.408,19.832 7.912,19.496 C8.5,19.088 8.8,18.452 8.8,17.588 C8.8,17.012 8.656,16.544 8.38,16.208 C8.092,15.86 7.672,15.632 7.108,15.524 C7.54,15.356 7.864,15.128 8.092,14.816 C8.32,14.48 8.44,14.072 8.44,13.592 C8.44,12.944 8.212,12.428 7.768,12.044 C7.288,11.636 6.616,11.432 5.764,11.432 L1.84,11.432 L1.84,20 L5.776,20 Z M5.392,15.032 L3.244,15.032 L3.244,12.584 L5.416,12.584 C5.992,12.584 6.4,12.68 6.664,12.872 C6.904,13.052 7.036,13.352 7.036,13.76 C7.036,14.204 6.904,14.528 6.664,14.732 C6.412,14.924 5.992,15.032 5.392,15.032 Z M5.572,18.848 L3.244,18.848 L3.244,16.184 L5.608,16.184 C6.232,16.184 6.688,16.292 6.976,16.508 C7.252,16.724 7.396,17.072 7.396,17.564 C7.396,18.044 7.204,18.38 6.82,18.596 C6.52,18.764 6.1,18.848 5.572,18.848 Z M11.524,20 L11.524,16.712 L13.648,16.712 C15.736,16.712 16.78,15.824 16.78,14.06 C16.78,12.308 15.736,11.432 13.672,11.432 L10.12,11.432 L10.12,20 L11.524,20 Z M13.564,15.512 L11.524,15.512 L11.524,12.632 L13.564,12.632 C14.176,12.632 14.632,12.74 14.92,12.968 C15.208,13.184 15.364,13.544 15.364,14.06 C15.364,14.576 15.22,14.948 14.932,15.176 C14.644,15.392 14.188,15.512 13.564,15.512 Z M19.384,20 L19.384,14.096 L19.432,14.096 L21.952,20 L23.164,20 L25.684,14.096 L25.732,14.096 L25.732,20 L27.136,20 L27.136,11.432 L25.492,11.432 L22.588,18.152 L22.54,18.152 L19.624,11.432 L17.98,11.432 L17.98,20 L19.384,20 Z" id="BPM" fill="#F5A623" fill-rule="nonzero"></path>
                </g>
            </g>
        </g>
    </g>
</svg>