<?xml version="1.0" encoding="UTF-8"?>
<svg width="32px" height="32px" viewBox="0 0 32 32" version="1.1" xmlns="http://www.w3.org/2000/svg" xmlns:xlink="http://www.w3.org/1999/xlink">
    <!-- Generator: Sketch 61.2 (89653) - https://sketch.com -->
    <title>编组 33</title>
    <desc>Created with Sketch.</desc>
    <g id="流程设计器" stroke="none" stroke-width="1" fill="none" fill-rule="evenodd">
        <g id="流程设计器补充内容" transform="translate(-1482.000000, -361.000000)">
            <g id="编组-49" transform="translate(1467.000000, 234.000000)">
                <g id="编组-33" transform="translate(16.000000, 128.000000)">
                    <g id="编组-55备份-2" fill="#FFEAC8" stroke="#F5A623">
                        <g id="编组-9备份-2">
                            <g id="编组-12">
                                <rect id="矩形备份-4" x="0" y="0" width="30" height="30" rx="8"></rect>
                            </g>
                        </g>
                    </g>
                    <path d="M5.9295291,9.00081815 L6.01979438,9.00109449 C6.84605673,9.03583365 6.73403656,8.90978684 6.7373699,9.84880037 C6.74171333,11.0288755 6.73848101,12.2089506 6.73848101,13.3891431 L6.73848101,13.3891431 C6.73403656,14.6858761 6.74787494,15.9828438 6.72949111,17.2792246 C6.71555172,18.2796185 6.40908718,19.1469238 5.7580773,19.832318 C5.63858239,19.9581301 5.53858243,20.1009597 5.39161278,19.8992144 C5.23868354,19.6894885 4.83817863,19.5735348 5.07120885,19.1895263 C5.56009757,18.3843054 5.5724208,17.4709942 5.57716827,16.5576829 C5.58928948,14.2119682 5.58827938,11.8662535 5.57363292,9.52053879 C5.57130969,9.11939541 5.66565309,8.98630687 6.01979438,9.00109449 Z M18.5470468,11.4395253 C19.624839,11.381211 19.641424,11.3807251 19.4560897,12.4569874 C19.2443121,13.6879039 18.9237464,14.8899063 18.4826785,16.0550978 C18.2820349,16.58515 18.0926413,17.1200617 17.9008121,17.6538801 C17.7770626,17.9984201 17.5852335,18.1703256 17.1920649,18.160971 C16.101283,18.1347296 16.0753037,18.1649801 15.7117097,17.0844657 C15.3830254,16.1077021 15.1192893,15.1068839 14.8251667,14.117364 C14.5987758,13.3556342 14.3817792,12.5906242 14.135324,11.8360621 C14.0333785,11.5234735 14.0999504,11.4169285 14.4079905,11.4402542 C14.5943686,11.4542253 14.7867777,11.4686824 14.9690966,11.4364881 C15.3856929,11.3631093 15.5901638,11.5495934 15.6375992,11.9686056 L15.6375992,11.9686056 L15.7251669,12.0773096 C15.9031148,12.3403323 15.9075546,12.6669187 15.9721984,12.9713676 C16.3054059,14.1292699 16.6383814,15.2871721 16.9715889,16.4450743 C17.0010475,16.4517562 17.0306222,16.4585595 17.0601968,16.4651199 C17.2229153,15.9619165 17.400363,15.4632082 17.5453367,14.9544164 C17.8461861,13.8989286 18.011804,12.8107605 18.2081563,11.731218 C18.2522283,11.4888494 18.3505785,11.4502162 18.5470468,11.4395253 Z M8.57789717,11.8475391 C9.45300629,11.486501 10.3539387,11.3310311 11.2860141,11.4699191 C12.3630544,11.6303282 12.8754189,12.272788 12.8779679,13.4269342 C12.8796304,14.0990298 12.8783004,14.7711253 12.8780788,15.4432208 C12.8778571,16.1737645 12.8770813,16.9043083 12.8784113,17.634852 C12.878792,17.8393619 12.8600136,18.0582193 12.6036651,18.0036519 C12.3352363,17.9466149 11.9076563,18.252733 11.8314057,17.7150566 C11.7703387,17.2851036 11.6692623,17.4181115 11.4327523,17.585812 C10.6755657,18.1229004 9.6737785,18.4321937 8.71876136,17.8390091 C8.37241942,17.623915 8.15973776,17.3215602 8.08104887,16.877495 C7.76695828,15.1048798 8.95637965,14.3281185 10.3973838,14.1387792 C10.6688051,14.1030282 10.948206,14.1136124 11.2226197,14.1297239 C11.4983633,14.1460706 11.5750572,14.0205892 11.5786038,13.742578 C11.5896867,12.8366897 11.1925849,12.3927421 10.3323269,12.3900373 C9.81663763,12.3883908 9.33131558,12.5699683 8.83635138,12.687688 C8.65492362,12.7308479 8.47194424,12.7682453 8.46983848,12.515989 C8.46784355,12.2963084 8.18168198,12.011006 8.57789717,11.8475391 Z M20.7283572,11.8414357 C21.6951709,11.4122817 22.6946473,11.3240687 23.7171537,11.5154721 C24.431967,11.6493247 24.9823599,12.396423 24.9945392,13.2370412 C25.0052791,13.9689262 24.9968643,14.7010471 24.9968643,15.433168 L24.9968643,15.433168 C24.9953142,16.1797945 24.9884495,16.9266569 24.9991895,17.6731655 C25.0030647,17.9375687 24.9210206,18.0473632 24.6649235,18.0242486 C24.3338683,17.9945298 23.9294054,18.1658847 23.8876636,17.5480398 C23.8734914,17.3376494 23.706303,17.4941449 23.6103081,17.5611302 C22.9602665,18.0158754 22.2749049,18.2763869 21.4745044,18.1116361 C20.4380473,17.8982974 20.0734438,17.0603916 20.1651206,16.1266073 C20.2896815,14.8578965 21.2998978,14.3033809 22.4951285,14.1411067 C22.7660622,14.104312 23.0455215,14.109501 23.318891,14.1297852 C23.6167299,14.1519564 23.6753012,14.0112637 23.6989954,13.7204438 C23.7831432,12.6884222 23.1219188,12.4141127 22.4385502,12.3886395 C21.9256916,12.3694166 21.4395167,12.5668345 20.9439305,12.6807566 C20.781171,12.718141 20.6185222,12.7574123 20.6093323,12.5176569 C20.6005854,12.2893408 20.3547853,12.0071299 20.7283572,11.8414357 Z M23.6931272,15.4943746 C23.7516985,15.0794904 23.5829601,14.934788 23.2069523,14.9955229 C22.8954948,15.045644 22.579387,15.0623903 22.2688152,15.1162851 C21.8458619,15.1897567 21.4805941,15.5736248 21.4348664,15.9653944 C21.3789524,16.4451412 21.5399404,16.8915132 21.8488514,17.021592 C22.3266115,17.2227838 22.7951818,17.1223058 23.2389506,16.8928105 C23.6697652,16.6701551 23.7883471,16.2813338 23.6910236,15.8802476 C23.6910236,15.6985147 23.6790657,15.5943808 23.6931272,15.4943746 Z M11.3516251,15.001978 C10.8053469,15.0147967 10.2448825,14.9983324 9.74858836,15.2832821 C9.40002983,15.4835583 9.3061573,15.8537695 9.33264554,16.2583204 C9.3535923,16.5764338 9.4300646,16.8830223 9.72797409,17.0159126 C10.2055381,17.2287722 10.6675859,17.0915307 11.1110145,16.8635004 C11.525184,16.6504055 11.676577,16.3015979 11.5750572,15.8928133 C11.5750572,15.6525524 11.5737273,15.478031 11.5751681,15.3035096 C11.5767197,15.1378084 11.521305,14.9979796 11.3516251,15.001978 Z" id="形状结合备份-2" fill="#F5A623"></path>
                </g>
            </g>
        </g>
    </g>
</svg>