<?xml version="1.0" encoding="UTF-8"?>
<svg width="40px" height="31px" viewBox="0 0 40 31" version="1.1" xmlns="http://www.w3.org/2000/svg" xmlns:xlink="http://www.w3.org/1999/xlink">
    <!-- Generator: Sketch 61.2 (89653) - https://sketch.com -->
    <title>编组 21</title>
    <desc>Created with Sketch.</desc>
    <g id="流程设计器" stroke="none" stroke-width="1" fill="none" fill-rule="evenodd">
        <g id="流程设计器补充内容" transform="translate(-47.000000, -561.000000)">
            <g id="编组-23" transform="translate(36.000000, 17.000000)">
                <g id="编组-22">
                    <g id="编组-21" transform="translate(12.000000, 544.000000)">
                        <polygon id="三角形备份-2" stroke="#F5A623" fill="#FFEED1" points="19 0 38 30 0 30"></polygon>
                        <path d="M9.13095238,27 C8.46046429,27 7.91666667,26.4698684 7.91666667,25.8157895 L7.91666667,22.6578947 C7.91666667,22.0040132 8.46046429,21.4736842 9.13095238,21.4736842 C9.80164286,21.4736842 10.3452381,22.0040132 10.3452381,22.6578947 L10.3452381,25.8157895 C10.3452381,26.4698684 9.80164286,27 9.13095238,27 M13.9880952,27 C13.3176071,27 12.7738095,26.4698684 12.7738095,25.8157895 L12.7738095,19.5 C12.7738095,18.8461184 13.3176071,18.3157895 13.9880952,18.3157895 C14.6587857,18.3157895 15.202381,18.8461184 15.202381,19.5 L15.202381,25.8157895 C15.202381,26.4698684 14.6587857,27 13.9880952,27 M18.8452381,27 C18.17475,27 17.6309524,26.4698684 17.6309524,25.8157895 L17.6309524,16.3421053 C17.6309524,15.6882237 18.17475,15.1578947 18.8452381,15.1578947 C19.5157262,15.1578947 20.0595238,15.6882237 20.0595238,16.3421053 L20.0595238,25.8157895 C20.0595238,26.4698684 19.5157262,27 18.8452381,27 M23.702381,27 C23.0318929,27 22.4880952,26.4698684 22.4880952,25.8157895 L22.4880952,13.1842105 C22.4880952,12.5303289 23.0318929,12 23.702381,12 C24.3730714,12 24.9166667,12.5303289 24.9166667,13.1842105 L24.9166667,25.8157895 C24.9166667,26.4698684 24.3730714,27 23.702381,27" id="Fill-1" fill="#F5A623"></path>
                    </g>
                </g>
            </g>
        </g>
    </g>
</svg>