<?xml version="1.0" encoding="UTF-8"?>
<svg width="32px" height="32px" viewBox="0 0 32 32" version="1.1" xmlns="http://www.w3.org/2000/svg" xmlns:xlink="http://www.w3.org/1999/xlink">

<title>start_1</title>
    <desc>Created with Sketch.</desc>
    <g id="流程设计器" stroke="none" stroke-width="1" fill="none" fill-rule="evenodd">
        <g transform="translate(-243.000000, -269.000000)" id="编组-24">
            <g transform="translate(244.000000, 270.000000)">
                <g id="编组-17">
                    <circle id="椭圆形" stroke="#37CFC9" fill="#EBFFFE" cx="15" cy="15" r="15"></circle>
                    <path d="M23,15.5 C23,16.0153906 22.7251429,16.4658594 22.3156429,16.7105469 L22.3156429,16.7107813 L12.1178393,22.7946875 C12.114125,22.7970313 12.1104107,22.7991406 12.1066964,22.80125 L12.1013571,22.8045313 L12.1013571,22.8042969 C11.8938214,22.9285156 11.6516964,23 11.3928571,23 C10.6235357,23 10,22.3704688 10,21.59375 L10,9.40625 C10,8.62976563 10.6235357,8 11.3928571,8 C11.6516964,8 11.8938214,8.07148438 12.1013571,8.19570313 L12.1013571,8.19546875 L12.1066964,8.19875 C12.1104107,8.20109375 12.114125,8.20320313 12.1178393,8.2053125 L22.3156429,14.2892187 L22.3156429,14.2894531 C22.7251429,14.534375 23,14.9846094 23,15.5" id="Fill-1" fill="#37CFC9"></path>
                </g>
            </g>
        </g>
    </g>
</svg>