<?xml version="1.0" encoding="UTF-8"?>
<svg width="32px" height="32px" viewBox="0 0 32 32" version="1.1" xmlns="http://www.w3.org/2000/svg" xmlns:xlink="http://www.w3.org/1999/xlink">
    <!-- Generator: Sketch 61.2 (89653) - https://sketch.com -->
    <title>编组 2备份 10</title>
    <desc>Created with Sketch.</desc>
    <g id="流程设计器" stroke="none" stroke-width="1" fill="none" fill-rule="evenodd">
        <g transform="translate(-11.000000, -509.000000)" id="编组-27">
            <g transform="translate(0.000000, 40.000000)">
                <g id="编组-2备份-10" transform="translate(12.000000, 470.000000)">
                    <rect id="矩形备份-2" stroke="#5073B8" fill="#EFF4FF" x="0" y="0" width="30" height="30"></rect>
                    <g id="编组" transform="translate(5.000000, 5.000000)" fill="#5073B8">
                        <path d="M17.5,12.4825637 C18.8808333,12.4825637 20,11.3607952 20,9.97675163 C20,8.59270809 18.8808333,7.47093954 17.5,7.47093954 C16.3605556,7.47093954 15.4008333,8.23576908 15.0997222,9.28069272 L8.84222222,9.28069272 L12.3452778,3.20187101 L15.0997222,3.20187101 C15.4008333,4.24679465 16.3605556,5.01162418 17.5,5.01162418 C18.8808333,5.01162418 20,3.88985564 20,2.50581209 C20,1.12176855 18.8808333,0 17.5,0 C16.3605556,0 15.4008333,0.764829535 15.0997222,1.80975318 L11.5438889,1.80975318 L7.23833333,9.28069272 L4.90027778,9.28069272 C4.59916667,8.23576908 3.63972222,7.47093954 2.5,7.47093954 C1.11944444,7.47093954 0,8.59270809 0,9.97675163 C0,11.3607952 1.11944444,12.4825637 2.5,12.4825637 C3.63972222,12.4825637 4.59916667,11.7177342 4.90027778,10.6728105 L7.23694444,10.6728105 L11.5425,18.1902468 L15.0997222,18.1902468 C15.4008333,19.2354489 16.3605556,20 17.5,20 C18.8808333,20 20,18.8782315 20,17.4941879 C20,16.1101444 18.8808333,14.9883758 17.5,14.9883758 C16.3605556,14.9883758 15.4008333,15.7534838 15.0997222,16.798129 L12.3466667,16.798129 L8.83833333,10.6728105 L15.0997222,10.6728105 C15.4008333,11.7177342 16.3605556,12.4825637 17.5,12.4825637" id="Fill-1"></path>
                    </g>
                </g>
            </g>
        </g>
    </g>
</svg>