<?xml version="1.0" encoding="UTF-8"?>
<svg width="32px" height="32px" viewBox="0 0 32 32" version="1.1" xmlns="http://www.w3.org/2000/svg" xmlns:xlink="http://www.w3.org/1999/xlink">

<title>start_1</title>
    <desc>Created with Sketch.</desc>
    <g id="流程设计器" stroke="none" stroke-width="1" fill="none" fill-rule="evenodd">
        <g transform="translate(-11.000000, -208.000000)" id="编组-25备份-2">
            <g transform="translate(0.000000, 40.000000)">
                <g id="编组-5" transform="translate(12.000000, 90.000000)">
                    <g id="编组-16" transform="translate(0.000000, 79.000000)">
                        <circle id="椭圆形备份" stroke="#37CFC9" fill="#EBFFFE" cx="15" cy="15" r="15"></circle>
                        <path d="M18.65625,15.84375 L16.96875,15.84375 L15.84375,15.84375 L15,15.84375 L15,15.84375 C14.5341094,15.84375 14.15625,15.4658906 14.15625,15 L14.15625,9.9375 C14.15625,9.47146875 14.5341094,9.09375 15,9.09375 C15.4660313,9.09375 15.84375,9.47146875 15.84375,9.9375 L15.84375,14.15625 L16.96875,14.15625 L18.65625,14.15625 C19.1222813,14.15625 19.5,14.5339687 19.5,15 C19.5,15.4660313 19.1222813,15.84375 18.65625,15.84375 M15,7.6875 C10.9613906,7.6875 7.6875,10.9613906 7.6875,15 C7.6875,19.0386094 10.9613906,22.3125 15,22.3125 C19.0386094,22.3125 22.3125,19.0386094 22.3125,15 C22.3125,10.9613906 19.0386094,7.6875 15,7.6875 M15,24 C10.0294687,24 6,19.9705313 6,15 C6,10.0294687 10.0294687,6 15,6 C19.9705313,6 24,10.0294687 24,15 C24,19.9705313 19.9705313,24 15,24" id="Fill-1" fill="#37CFC9"></path>
                    </g>
                </g>
            </g>
        </g>
    </g>
</svg>