<?xml version="1.0" encoding="UTF-8"?>
<svg width="40px" height="31px" viewBox="0 0 40 31" version="1.1" xmlns="http://www.w3.org/2000/svg" xmlns:xlink="http://www.w3.org/1999/xlink">
    <!-- Generator: Sketch 61.2 (89653) - https://sketch.com -->
    <title>编组 19</title>
    <desc>Created with Sketch.</desc>
    <g id="流程设计器" stroke="none" stroke-width="1" fill="none" fill-rule="evenodd">
        <g id="流程设计器补充内容" transform="translate(-47.000000, -441.000000)">
            <g id="编组-23" transform="translate(36.000000, 17.000000)">
                <g id="编组-22">
                    <g id="编组-19" transform="translate(12.000000, 424.000000)">
                        <polygon id="三角形" stroke="#F5A623" fill="#FFEED1" points="19 0 38 30 0 30"></polygon>
                        <path d="M22.5729167,19.84375 L20.8854167,19.84375 L19.7604167,19.84375 L18.9166667,19.84375 L18.9166667,19.84375 C18.450776,19.84375 18.0729167,19.4658906 18.0729167,19 L18.0729167,13.9375 C18.0729167,13.4714688 18.450776,13.09375 18.9166667,13.09375 C19.3826979,13.09375 19.7604167,13.4714688 19.7604167,13.9375 L19.7604167,18.15625 L20.8854167,18.15625 L22.5729167,18.15625 C23.0389479,18.15625 23.4166667,18.5339687 23.4166667,19 C23.4166667,19.4660313 23.0389479,19.84375 22.5729167,19.84375 M18.9166667,11.6875 C14.8780573,11.6875 11.6041667,14.9613906 11.6041667,19 C11.6041667,23.0386094 14.8780573,26.3125 18.9166667,26.3125 C22.955276,26.3125 26.2291667,23.0386094 26.2291667,19 C26.2291667,14.9613906 22.955276,11.6875 18.9166667,11.6875 M18.9166667,28 C13.9461354,28 9.91666667,23.9705313 9.91666667,19 C9.91666667,14.0294687 13.9461354,10 18.9166667,10 C23.8871979,10 27.9166667,14.0294687 27.9166667,19 C27.9166667,23.9705313 23.8871979,28 18.9166667,28" id="Fill-1" fill="#F5A623"></path>
                    </g>
                </g>
            </g>
        </g>
    </g>
</svg>