<?xml version="1.0" encoding="UTF-8"?>
<svg width="32px" height="32px" viewBox="0 0 32 32" version="1.1" xmlns="http://www.w3.org/2000/svg" xmlns:xlink="http://www.w3.org/1999/xlink">
    <!-- Generator: Sketch 61.2 (89653) - https://sketch.com -->
    <title>编组 4</title>
    <desc>Created with Sketch.</desc>
    <g id="流程设计器" stroke="none" stroke-width="1" fill="none" fill-rule="evenodd">
        <g transform="translate(-11.000000, -506.000000)" id="编组-25备份-2">
            <g transform="translate(0.000000, 40.000000)">
                <g id="编组-4" transform="translate(12.000000, 467.000000)">
                    <rect id="矩形" stroke="#5A6CE6" fill="#D6DBFF" x="0" y="0" width="30" height="30"></rect>
                    <path d="M24.8600836,21.0753553 C24.9977501,21.7067572 25,22.1752698 25,22.1752698 L24.9994375,22.1752698 C24.9994375,22.1759553 24.9995781,22.1766409 24.9995781,22.1773265 C24.9995781,22.6315794 24.6218741,23 24.1558611,23 L22.8367095,23 C22.9310652,22.938985 23.0195149,22.8700176 23.0992461,22.7922749 L24.8600836,21.0753553 Z M21.8994805,19.3083897 C21.6012265,19.0489733 21.2121323,18.8866324 20.7809929,18.8866324 C19.8491075,18.8866324 19.0935588,19.6231994 19.0935588,20.5319794 C19.0935588,20.9863694 19.2825515,21.3975691 19.5878364,21.6953769 L20.7127925,22.7922749 C20.7925237,22.8700176 20.8809734,22.938985 20.9753291,23 L7.84399828,23 C7.37812585,23 7.00028124,22.6315794 7.00028124,22.1773265 C7.00028124,22.1766409 7.00056248,22.1759553 7.00056248,22.1752698 L7,22.1752698 C7,22.1752698 7,19.1775846 9.24653724,18.087405 C10.6680598,17.3978675 10.1207687,17.9575597 11.8658568,17.2517058 C13.6110855,16.5472231 14.0245069,16.3012437 14.0245069,16.3012437 L14.0409593,14.6767377 C14.0409593,14.6767377 13.3873599,14.1893036 13.1841647,12.6609133 C12.7752432,12.7760876 12.6401078,12.192675 12.6160619,11.8211008 C12.5941252,11.4624151 12.3793992,10.3416595 12.8781766,10.4427113 C12.7762275,9.69435259 12.7028241,9.01962318 12.7388227,8.66203442 C12.8639741,7.40704596 14.1036756,6.09584147 16.0132885,6 C18.2594039,6.09570435 19.1492442,7.40608617 19.2739737,8.66107464 C19.3103941,9.0186634 19.2303816,9.69394125 19.1281512,10.4410659 C19.6273505,10.3412482 19.4103746,11.4602213 19.3860474,11.8190441 C19.3641108,12.1906183 19.2258818,12.7719743 18.8179446,12.6569371 C18.6140463,14.1853274 17.9604469,14.6690594 17.9604469,14.6690594 L17.9757744,16.2850644 C17.9757744,16.2850644 18.3890551,16.5152759 20.1341432,17.2200329 C21.8795125,17.9257497 21.3319402,17.3980046 22.7536034,18.0876793 C22.8445842,18.1318294 22.9212218,18.187497 23.0050311,18.2375429 C22.9916722,18.2497459 22.9756416,18.2590696 22.9627046,18.2716839 L21.8994805,19.3083897 Z M22.5025976,22.2106448 C22.3498848,22.3594115 22.1389555,22.451551 21.905949,22.451551 C21.6730831,22.451551 21.4621538,22.3594115 21.309441,22.2106448 L20.184485,21.1137467 C20.0317722,20.9648428 19.9372759,20.7591744 19.9372759,20.5319794 C19.9372759,20.0775894 20.3151205,19.7093059 20.7809929,19.7093059 C21.0139995,19.7093059 21.2249287,19.8013082 21.3776415,19.9502121 L21.905949,20.4653429 L23.5593532,18.8533141 C23.7119253,18.7044102 23.9229952,18.6124079 24.1558611,18.6124079 C24.6218741,18.6124079 24.9995781,18.9806914 24.9995781,19.4350814 C24.9995781,19.6622764 24.9052225,19.8679448 24.7525097,20.0168487 L22.5025976,22.2106448 Z" id="Fill-1" fill="#5A6CE6"></path>
                </g>
            </g>
        </g>
    </g>
</svg>